<svg xmlns="http://www.w3.org/2000/svg" xmlns:xlink="http://www.w3.org/1999/xlink" width="40" zoomAndPan="magnify" viewBox="0 0 30 30.000001" height="40" preserveAspectRatio="xMidYMid meet" version="1.0"><defs><clipPath id="5cac390ad6"><path d="M 0.628906 4.355469 L 29.515625 4.355469 L 29.515625 25.402344 L 0.628906 25.402344 Z M 0.628906 4.355469 " clip-rule="nonzero"/></clipPath><clipPath id="ca879e706e"><path d="M 12.96875 8.925781 L 17.324219 8.925781 L 17.324219 13.433594 L 12.96875 13.433594 Z M 12.96875 8.925781 " clip-rule="nonzero"/></clipPath><clipPath id="37916d5658"><path d="M 15.144531 8.925781 C 13.941406 8.925781 12.96875 9.933594 12.96875 11.175781 C 12.96875 12.421875 13.941406 13.425781 15.144531 13.425781 C 16.347656 13.425781 17.324219 12.421875 17.324219 11.175781 C 17.324219 9.933594 16.347656 8.925781 15.144531 8.925781 Z M 15.144531 8.925781 " clip-rule="nonzero"/></clipPath></defs><g clip-path="url(#5cac390ad6)"><path fill="#01dbaf" d="M 28.414062 5.585938 C 27.65625 4.828125 26.597656 4.355469 25.4375 4.355469 L 4.851562 4.355469 C 2.527344 4.355469 0.644531 6.238281 0.644531 8.5625 L 0.644531 21.332031 C 0.644531 23.65625 2.527344 25.539062 4.851562 25.539062 L 25.4375 25.539062 C 26.597656 25.539062 27.65625 25.066406 28.414062 24.308594 C 29.171875 23.550781 29.644531 22.492188 29.644531 21.332031 L 29.644531 8.5625 C 29.644531 7.402344 29.171875 6.34375 28.414062 5.585938 Z M 4.851562 6.507812 L 25.4375 6.507812 C 25.929688 6.511719 26.371094 6.6875 26.722656 6.972656 L 15.144531 15.710938 L 3.566406 6.972656 C 3.921875 6.6875 4.359375 6.511719 4.851562 6.507812 Z M 2.800781 21.332031 L 2.800781 8.5625 C 2.800781 8.234375 2.882812 7.929688 3.019531 7.652344 L 11.050781 15.015625 L 3 22.199219 C 2.875 21.9375 2.800781 21.644531 2.800781 21.332031 Z M 25.4375 23.382812 L 4.851562 23.382812 C 4.386719 23.382812 3.96875 23.226562 3.628906 22.96875 L 12.160156 16.070312 L 13.453125 17.300781 C 14.410156 18.179688 15.882812 18.179688 16.839844 17.300781 L 18.132812 16.070312 L 26.664062 22.96875 C 26.320312 23.226562 25.902344 23.382812 25.4375 23.382812 Z M 27.492188 21.332031 C 27.488281 21.644531 27.417969 21.9375 27.292969 22.199219 L 19.238281 15.015625 L 27.269531 7.652344 C 27.40625 7.929688 27.488281 8.230469 27.492188 8.5625 Z M 27.492188 21.332031 " fill-opacity="1" fill-rule="nonzero"/></g><g clip-path="url(#ca879e706e)"><g clip-path="url(#37916d5658)"><path fill="#072f33" d="M 12.96875 8.925781 L 17.324219 8.925781 L 17.324219 13.433594 L 12.96875 13.433594 Z M 12.96875 8.925781 " fill-opacity="1" fill-rule="nonzero"/></g></g></svg>