<svg xmlns="http://www.w3.org/2000/svg" xmlns:xlink="http://www.w3.org/1999/xlink" width="1920" zoomAndPan="magnify" viewBox="0 0 1440 809.999993" height="1080" preserveAspectRatio="xMidYMid meet" version="1.0"><defs><g/><clipPath id="5327ca5afe"><path d="M 491 238 L 949 238 L 949 600 L 491 600 Z M 491 238 " clip-rule="nonzero"/></clipPath><clipPath id="f3503f1b3d"><path d="M 532.738281 190.675781 L 992.667969 264.054688 L 937.605469 609.191406 L 477.671875 535.808594 Z M 532.738281 190.675781 " clip-rule="nonzero"/></clipPath><clipPath id="5313f39d3b"><path d="M 532.738281 190.675781 L 992.667969 264.054688 L 937.605469 609.191406 L 477.671875 535.808594 Z M 532.738281 190.675781 " clip-rule="nonzero"/></clipPath><clipPath id="3e528fbe23"><path d="M 570 356 L 653 356 L 653 439 L 570 439 Z M 570 356 " clip-rule="nonzero"/></clipPath><clipPath id="43ee0a4c59"><path d="M 532.738281 190.675781 L 992.667969 264.054688 L 937.605469 609.191406 L 477.671875 535.808594 Z M 532.738281 190.675781 " clip-rule="nonzero"/></clipPath><clipPath id="7200655f9a"><path d="M 532.738281 190.675781 L 992.667969 264.054688 L 937.605469 609.191406 L 477.671875 535.808594 Z M 532.738281 190.675781 " clip-rule="nonzero"/></clipPath><clipPath id="12e77fddee"><path d="M 817 393 L 852 393 L 852 428 L 817 428 Z M 817 393 " clip-rule="nonzero"/></clipPath><clipPath id="e4d83860de"><path d="M 532.738281 190.675781 L 992.667969 264.054688 L 937.605469 609.191406 L 477.671875 535.808594 Z M 532.738281 190.675781 " clip-rule="nonzero"/></clipPath><clipPath id="6a145e7863"><path d="M 532.738281 190.675781 L 992.667969 264.054688 L 937.605469 609.191406 L 477.671875 535.808594 Z M 532.738281 190.675781 " clip-rule="nonzero"/></clipPath><clipPath id="10c30fa4c7"><path d="M 864 400 L 899 400 L 899 435 L 864 435 Z M 864 400 " clip-rule="nonzero"/></clipPath><clipPath id="c7b227041f"><path d="M 532.738281 190.675781 L 992.667969 264.054688 L 937.605469 609.191406 L 477.671875 535.808594 Z M 532.738281 190.675781 " clip-rule="nonzero"/></clipPath><clipPath id="57b56c062b"><path d="M 532.738281 190.675781 L 992.667969 264.054688 L 937.605469 609.191406 L 477.671875 535.808594 Z M 532.738281 190.675781 " clip-rule="nonzero"/></clipPath><clipPath id="4a29d29f22"><path d="M 809 441 L 844 441 L 844 476 L 809 476 Z M 809 441 " clip-rule="nonzero"/></clipPath><clipPath id="1e306fb0e2"><path d="M 532.738281 190.675781 L 992.667969 264.054688 L 937.605469 609.191406 L 477.671875 535.808594 Z M 532.738281 190.675781 " clip-rule="nonzero"/></clipPath><clipPath id="e7f72f026c"><path d="M 532.738281 190.675781 L 992.667969 264.054688 L 937.605469 609.191406 L 477.671875 535.808594 Z M 532.738281 190.675781 " clip-rule="nonzero"/></clipPath><clipPath id="d431113397"><path d="M 856 448 L 892 448 L 892 484 L 856 484 Z M 856 448 " clip-rule="nonzero"/></clipPath><clipPath id="b36b84a216"><path d="M 532.738281 190.675781 L 992.667969 264.054688 L 937.605469 609.191406 L 477.671875 535.808594 Z M 532.738281 190.675781 " clip-rule="nonzero"/></clipPath><clipPath id="6377ff9aee"><path d="M 532.738281 190.675781 L 992.667969 264.054688 L 937.605469 609.191406 L 477.671875 535.808594 Z M 532.738281 190.675781 " clip-rule="nonzero"/></clipPath><clipPath id="6d243b0a1c"><path d="M 742 413 L 774 413 L 774 432 L 742 432 Z M 742 413 " clip-rule="nonzero"/></clipPath><clipPath id="52acd851ce"><path d="M 532.738281 190.675781 L 992.667969 264.054688 L 937.605469 609.191406 L 477.671875 535.808594 Z M 532.738281 190.675781 " clip-rule="nonzero"/></clipPath><clipPath id="88845d30b9"><path d="M 532.738281 190.675781 L 992.667969 264.054688 L 937.605469 609.191406 L 477.671875 535.808594 Z M 532.738281 190.675781 " clip-rule="nonzero"/></clipPath><clipPath id="c36f361e83"><path d="M 690 405 L 722 405 L 722 424 L 690 424 Z M 690 405 " clip-rule="nonzero"/></clipPath><clipPath id="d9155fdba0"><path d="M 532.738281 190.675781 L 992.667969 264.054688 L 937.605469 609.191406 L 477.671875 535.808594 Z M 532.738281 190.675781 " clip-rule="nonzero"/></clipPath><clipPath id="a6500bc2ed"><path d="M 532.738281 190.675781 L 992.667969 264.054688 L 937.605469 609.191406 L 477.671875 535.808594 Z M 532.738281 190.675781 " clip-rule="nonzero"/></clipPath></defs><g clip-path="url(#5327ca5afe)"><g clip-path="url(#f3503f1b3d)"><g clip-path="url(#5313f39d3b)"><path fill="#fffdfd" d="M 754.6875 329.550781 C 760.015625 312.253906 773.941406 304.210938 789.871094 295.117188 C 807.496094 285.074219 827.5 273.691406 831.734375 247.152344 C 832.398438 242.984375 829.542969 239.070312 825.398438 238.410156 C 821.25 237.746094 817.320312 240.582031 816.65625 244.746094 C 813.574219 264.046875 799.097656 272.292969 782.320312 281.851562 C 765.226562 291.589844 746.191406 302.703125 739.589844 327.242188 C 723.484375 323.164062 707.691406 314.554688 692.371094 305.90625 C 674.269531 295.671875 655.527344 285.105469 635.546875 281.917969 C 619.148438 279.300781 603.832031 281.882812 588.765625 289.820312 C 543.203125 313.710938 496.613281 415.503906 491.820312 478.988281 C 489.789062 505.648438 495.085938 523.8125 507.542969 532.972656 C 512.632812 536.703125 518.617188 539.164062 525.347656 540.238281 C 549.152344 544.035156 580.195312 530.453125 613.089844 516.082031 C 650.425781 499.753906 689.039062 482.851562 721.101562 487.96875 C 753.164062 493.082031 784.617188 521.144531 815 548.296875 C 841.785156 572.1875 867.082031 594.761719 890.871094 598.554688 C 897.597656 599.628906 904.070312 599.175781 910.050781 597.191406 C 924.738281 592.363281 935.421875 576.75 941.789062 550.78125 C 956.988281 488.957031 944.390625 377.71875 908.5625 340.84375 C 896.691406 328.609375 882.960938 321.390625 866.5625 318.773438 C 846.582031 315.585938 825.496094 319.820312 805.089844 323.890625 C 788.238281 327.269531 770.949219 330.484375 754.6875 329.550781 Z M 864.175781 333.859375 C 877.179688 335.933594 888.148438 341.703125 897.640625 351.492188 C 926.511719 381.222656 942.160156 485.449219 927.003906 547.144531 C 922.101562 567.085938 914.386719 579.695312 905.308594 582.691406 C 885.148438 589.351562 855.917969 564.316406 825.226562 536.898438 C 794.652344 509.621094 760.015625 478.714844 723.542969 472.894531 C 687.070312 467.074219 644.535156 485.667969 606.992188 502.082031 C 576.238281 515.535156 547.148438 528.253906 527.789062 525.164062 C 523.433594 524.46875 519.765625 522.996094 516.636719 520.679688 C 508.941406 515.003906 505.535156 500.621094 507.078125 480.148438 C 511.871094 416.796875 559.175781 322.617188 595.867188 303.34375 C 607.898438 296.988281 620.113281 294.917969 633.121094 296.992188 C 650.386719 299.75 667.105469 309.199219 684.820312 319.199219 C 703.527344 329.757812 722.855469 340.671875 744.078125 344.058594 C 765.304688 347.445312 787.066406 343.089844 808.132812 338.871094 C 828.078125 334.882812 846.910156 331.101562 864.175781 333.859375 Z M 864.175781 333.859375 " fill-opacity="1" fill-rule="nonzero"/></g></g></g><g clip-path="url(#3e528fbe23)"><g clip-path="url(#43ee0a4c59)"><g clip-path="url(#7200655f9a)"><path fill="#fffdfd" d="M 646.03125 395.023438 L 620.507812 390.949219 L 624.589844 365.371094 C 625.253906 361.207031 622.398438 357.289062 618.25 356.628906 C 614.105469 355.96875 610.171875 358.820312 609.507812 362.964844 L 605.429688 388.542969 L 579.8125 384.457031 C 575.648438 383.792969 571.730469 386.648438 571.070312 390.792969 C 570.40625 394.941406 573.257812 398.875 577.40625 399.535156 L 602.984375 403.617188 L 598.90625 429.175781 C 598.242188 433.34375 601.097656 437.257812 605.242188 437.917969 C 609.390625 438.582031 613.324219 435.730469 613.984375 431.582031 L 618.0625 406.023438 L 643.625 410.101562 C 647.789062 410.765625 651.703125 407.910156 652.367188 403.765625 C 653.027344 399.617188 650.175781 395.683594 646.03125 395.023438 Z M 646.03125 395.023438 " fill-opacity="1" fill-rule="nonzero"/></g></g></g><g clip-path="url(#12e77fddee)"><g clip-path="url(#e4d83860de)"><g clip-path="url(#6a145e7863)"><path fill="#fffdfd" d="M 851.050781 412.964844 C 850.960938 413.519531 850.847656 414.066406 850.703125 414.609375 C 850.5625 415.152344 850.394531 415.6875 850.199219 416.210938 C 850.003906 416.738281 849.785156 417.253906 849.539062 417.757812 C 849.292969 418.261719 849.023438 418.753906 848.730469 419.230469 C 848.4375 419.707031 848.121094 420.171875 847.78125 420.617188 C 847.445312 421.0625 847.082031 421.492188 846.703125 421.902344 C 846.320312 422.316406 845.921875 422.707031 845.5 423.078125 C 845.082031 423.449219 844.644531 423.800781 844.191406 424.128906 C 843.738281 424.460938 843.269531 424.765625 842.785156 425.046875 C 842.300781 425.332031 841.804688 425.589844 841.292969 425.824219 C 840.785156 426.058594 840.265625 426.265625 839.734375 426.449219 C 839.203125 426.632812 838.667969 426.789062 838.121094 426.921875 C 837.574219 427.050781 837.023438 427.152344 836.46875 427.230469 C 835.914062 427.304688 835.355469 427.355469 834.796875 427.375 C 834.234375 427.398438 833.675781 427.390625 833.117188 427.359375 C 832.554688 427.324219 832 427.261719 831.445312 427.175781 C 830.890625 427.085938 830.34375 426.972656 829.800781 426.828125 C 829.257812 426.6875 828.722656 426.519531 828.199219 426.324219 C 827.671875 426.128906 827.15625 425.910156 826.652344 425.664062 C 826.148438 425.417969 825.65625 425.148438 825.179688 424.855469 C 824.703125 424.5625 824.242188 424.246094 823.792969 423.90625 C 823.347656 423.566406 822.917969 423.207031 822.507812 422.828125 C 822.09375 422.445312 821.703125 422.046875 821.332031 421.625 C 820.960938 421.207031 820.609375 420.769531 820.28125 420.316406 C 819.949219 419.863281 819.644531 419.390625 819.363281 418.910156 C 819.078125 418.425781 818.820312 417.925781 818.585938 417.417969 C 818.351562 416.910156 818.144531 416.386719 817.960938 415.859375 C 817.777344 415.328125 817.621094 414.789062 817.488281 414.246094 C 817.359375 413.699219 817.257812 413.148438 817.179688 412.59375 C 817.105469 412.039062 817.054688 411.480469 817.035156 410.921875 C 817.011719 410.359375 817.019531 409.800781 817.050781 409.238281 C 817.085938 408.679688 817.148438 408.125 817.234375 407.570312 C 817.324219 407.015625 817.4375 406.46875 817.582031 405.925781 C 817.722656 405.382812 817.890625 404.847656 818.085938 404.324219 C 818.28125 403.796875 818.5 403.28125 818.746094 402.777344 C 818.992188 402.273438 819.261719 401.78125 819.554688 401.304688 C 819.847656 400.828125 820.164062 400.363281 820.503906 399.917969 C 820.84375 399.472656 821.203125 399.042969 821.582031 398.632812 C 821.964844 398.21875 822.363281 397.828125 822.785156 397.457031 C 823.203125 397.085938 823.640625 396.734375 824.09375 396.40625 C 824.550781 396.074219 825.019531 395.769531 825.503906 395.484375 C 825.984375 395.203125 826.484375 394.945312 826.992188 394.710938 C 827.503906 394.476562 828.023438 394.269531 828.550781 394.085938 C 829.082031 393.902344 829.621094 393.746094 830.164062 393.613281 C 830.710938 393.484375 831.261719 393.378906 831.816406 393.304688 C 832.371094 393.226562 832.929688 393.179688 833.488281 393.160156 C 834.050781 393.136719 834.609375 393.144531 835.171875 393.175781 C 835.730469 393.210938 836.285156 393.269531 836.839844 393.359375 C 837.394531 393.449219 837.941406 393.5625 838.484375 393.707031 C 839.027344 393.847656 839.5625 394.015625 840.085938 394.210938 C 840.613281 394.40625 841.128906 394.625 841.632812 394.871094 C 842.136719 395.117188 842.628906 395.386719 843.105469 395.679688 C 843.582031 395.972656 844.046875 396.289062 844.492188 396.628906 C 844.9375 396.964844 845.367188 397.328125 845.78125 397.707031 C 846.191406 398.089844 846.582031 398.488281 846.953125 398.910156 C 847.328125 399.328125 847.675781 399.765625 848.007812 400.21875 C 848.335938 400.671875 848.640625 401.140625 848.925781 401.625 C 849.207031 402.109375 849.464844 402.605469 849.699219 403.117188 C 849.933594 403.625 850.144531 404.144531 850.324219 404.675781 C 850.507812 405.207031 850.664062 405.742188 850.796875 406.289062 C 850.925781 406.835938 851.03125 407.386719 851.105469 407.941406 C 851.183594 408.496094 851.230469 409.054688 851.253906 409.613281 C 851.273438 410.175781 851.265625 410.734375 851.234375 411.292969 C 851.199219 411.855469 851.140625 412.410156 851.050781 412.964844 Z M 851.050781 412.964844 " fill-opacity="1" fill-rule="nonzero"/></g></g></g><g clip-path="url(#10c30fa4c7)"><g clip-path="url(#c7b227041f)"><g clip-path="url(#57b56c062b)"><path fill="#fffdfd" d="M 898.664062 420.5625 C 898.574219 421.117188 898.460938 421.664062 898.316406 422.207031 C 898.175781 422.75 898.007812 423.28125 897.8125 423.808594 C 897.617188 424.335938 897.398438 424.847656 897.152344 425.351562 C 896.90625 425.859375 896.636719 426.347656 896.34375 426.828125 C 896.050781 427.304688 895.734375 427.765625 895.394531 428.214844 C 895.058594 428.660156 894.695312 429.089844 894.316406 429.5 C 893.933594 429.910156 893.535156 430.304688 893.113281 430.675781 C 892.695312 431.046875 892.257812 431.398438 891.804688 431.726562 C 891.351562 432.054688 890.882812 432.363281 890.398438 432.644531 C 889.914062 432.929688 889.417969 433.1875 888.90625 433.421875 C 888.398438 433.65625 887.878906 433.863281 887.347656 434.046875 C 886.816406 434.230469 886.28125 434.386719 885.734375 434.515625 C 885.1875 434.648438 884.636719 434.75 884.082031 434.828125 C 883.527344 434.902344 882.96875 434.953125 882.410156 434.972656 C 881.847656 434.996094 881.289062 434.988281 880.730469 434.953125 C 880.167969 434.921875 879.613281 434.859375 879.058594 434.773438 C 878.503906 434.683594 877.957031 434.566406 877.414062 434.425781 C 876.871094 434.285156 876.335938 434.117188 875.8125 433.921875 C 875.285156 433.726562 874.769531 433.507812 874.265625 433.261719 C 873.761719 433.015625 873.269531 432.746094 872.792969 432.453125 C 872.316406 432.160156 871.855469 431.84375 871.40625 431.503906 C 870.960938 431.164062 870.53125 430.804688 870.121094 430.421875 C 869.707031 430.042969 869.316406 429.640625 868.945312 429.222656 C 868.574219 428.804688 868.222656 428.367188 867.894531 427.910156 C 867.5625 427.457031 867.257812 426.988281 866.976562 426.503906 C 866.691406 426.019531 866.433594 425.523438 866.199219 425.015625 C 865.964844 424.503906 865.757812 423.984375 865.574219 423.457031 C 865.390625 422.925781 865.234375 422.386719 865.101562 421.84375 C 864.972656 421.296875 864.871094 420.746094 864.792969 420.191406 C 864.71875 419.636719 864.667969 419.078125 864.648438 418.515625 C 864.625 417.957031 864.632812 417.394531 864.664062 416.835938 C 864.699219 416.277344 864.761719 415.71875 864.847656 415.167969 C 864.9375 414.613281 865.050781 414.066406 865.195312 413.523438 C 865.335938 412.980469 865.503906 412.445312 865.699219 411.917969 C 865.894531 411.394531 866.113281 410.878906 866.359375 410.375 C 866.605469 409.871094 866.875 409.378906 867.167969 408.902344 C 867.460938 408.421875 867.777344 407.960938 868.117188 407.515625 C 868.457031 407.066406 868.816406 406.640625 869.195312 406.226562 C 869.578125 405.816406 869.976562 405.425781 870.398438 405.050781 C 870.816406 404.679688 871.253906 404.328125 871.707031 404 C 872.160156 403.671875 872.632812 403.367188 873.117188 403.082031 C 873.597656 402.800781 874.097656 402.542969 874.605469 402.308594 C 875.113281 402.074219 875.636719 401.863281 876.164062 401.679688 C 876.695312 401.496094 877.234375 401.339844 877.777344 401.210938 C 878.324219 401.082031 878.875 400.976562 879.429688 400.902344 C 879.984375 400.824219 880.542969 400.777344 881.101562 400.753906 C 881.664062 400.734375 882.222656 400.738281 882.785156 400.773438 C 883.34375 400.808594 883.898438 400.867188 884.453125 400.957031 C 885.007812 401.042969 885.554688 401.160156 886.097656 401.300781 C 886.640625 401.445312 887.175781 401.613281 887.699219 401.808594 C 888.226562 402.003906 888.742188 402.222656 889.246094 402.46875 C 889.75 402.710938 890.242188 402.980469 890.71875 403.277344 C 891.195312 403.570312 891.660156 403.886719 892.105469 404.222656 C 892.550781 404.5625 892.980469 404.921875 893.390625 405.304688 C 893.804688 405.683594 894.195312 406.085938 894.566406 406.503906 C 894.941406 406.925781 895.289062 407.363281 895.621094 407.816406 C 895.949219 408.269531 896.253906 408.738281 896.539062 409.222656 C 896.820312 409.707031 897.078125 410.203125 897.3125 410.714844 C 897.546875 411.222656 897.757812 411.742188 897.9375 412.273438 C 898.121094 412.800781 898.277344 413.339844 898.410156 413.886719 C 898.539062 414.429688 898.644531 414.980469 898.71875 415.539062 C 898.796875 416.09375 898.84375 416.652344 898.867188 417.210938 C 898.886719 417.773438 898.878906 418.332031 898.847656 418.890625 C 898.8125 419.449219 898.753906 420.007812 898.664062 420.5625 Z M 898.664062 420.5625 " fill-opacity="1" fill-rule="nonzero"/></g></g></g><g clip-path="url(#4a29d29f22)"><g clip-path="url(#1e306fb0e2)"><g clip-path="url(#e7f72f026c)"><path fill="#fffdfd" d="M 843.382812 461.03125 C 843.292969 461.585938 843.179688 462.132812 843.035156 462.675781 C 842.894531 463.21875 842.726562 463.75 842.53125 464.277344 C 842.335938 464.804688 842.117188 465.316406 841.871094 465.824219 C 841.625 466.328125 841.355469 466.816406 841.0625 467.296875 C 840.769531 467.773438 840.453125 468.234375 840.113281 468.683594 C 839.773438 469.128906 839.414062 469.558594 839.035156 469.96875 C 838.652344 470.378906 838.253906 470.773438 837.832031 471.144531 C 837.414062 471.515625 836.976562 471.867188 836.523438 472.195312 C 836.066406 472.523438 835.597656 472.832031 835.113281 473.113281 C 834.632812 473.398438 834.132812 473.65625 833.625 473.890625 C 833.113281 474.125 832.59375 474.332031 832.066406 474.515625 C 831.535156 474.699219 830.996094 474.855469 830.453125 474.984375 C 829.90625 475.117188 829.355469 475.21875 828.800781 475.296875 C 828.246094 475.371094 827.6875 475.421875 827.128906 475.441406 C 826.566406 475.464844 826.007812 475.457031 825.445312 475.421875 C 824.886719 475.390625 824.332031 475.328125 823.777344 475.242188 C 823.222656 475.152344 822.675781 475.039062 822.132812 474.894531 C 821.589844 474.753906 821.054688 474.585938 820.53125 474.390625 C 820.003906 474.195312 819.488281 473.976562 818.984375 473.730469 C 818.480469 473.484375 817.988281 473.214844 817.511719 472.921875 C 817.035156 472.628906 816.570312 472.3125 816.125 471.972656 C 815.679688 471.632812 815.25 471.273438 814.835938 470.890625 C 814.425781 470.511719 814.035156 470.109375 813.664062 469.691406 C 813.289062 469.273438 812.941406 468.835938 812.609375 468.382812 C 812.28125 467.925781 811.976562 467.457031 811.691406 466.972656 C 811.410156 466.488281 811.152344 465.992188 810.917969 465.484375 C 810.683594 464.972656 810.472656 464.453125 810.292969 463.925781 C 810.109375 463.394531 809.953125 462.855469 809.820312 462.3125 C 809.691406 461.765625 809.585938 461.214844 809.511719 460.660156 C 809.433594 460.105469 809.386719 459.546875 809.363281 458.984375 C 809.34375 458.425781 809.351562 457.867188 809.382812 457.304688 C 809.417969 456.746094 809.476562 456.1875 809.566406 455.636719 C 809.65625 455.082031 809.769531 454.535156 809.914062 453.992188 C 810.054688 453.449219 810.222656 452.914062 810.417969 452.390625 C 810.613281 451.863281 810.832031 451.347656 811.078125 450.84375 C 811.324219 450.339844 811.59375 449.847656 811.886719 449.371094 C 812.179688 448.894531 812.496094 448.429688 812.835938 447.984375 C 813.171875 447.535156 813.535156 447.109375 813.914062 446.695312 C 814.296875 446.285156 814.695312 445.894531 815.117188 445.523438 C 815.535156 445.148438 815.972656 444.800781 816.425781 444.46875 C 816.878906 444.140625 817.347656 443.835938 817.832031 443.550781 C 818.316406 443.269531 818.8125 443.011719 819.324219 442.777344 C 819.832031 442.542969 820.351562 442.332031 820.882812 442.148438 C 821.414062 441.96875 821.949219 441.808594 822.496094 441.679688 C 823.042969 441.550781 823.59375 441.445312 824.148438 441.371094 C 824.703125 441.292969 825.261719 441.246094 825.820312 441.222656 C 826.382812 441.203125 826.941406 441.207031 827.5 441.242188 C 828.0625 441.277344 828.617188 441.335938 829.171875 441.425781 C 829.726562 441.511719 830.273438 441.628906 830.816406 441.769531 C 831.359375 441.914062 831.894531 442.082031 832.417969 442.277344 C 832.945312 442.472656 833.460938 442.691406 833.964844 442.9375 C 834.46875 443.183594 834.960938 443.449219 835.4375 443.746094 C 835.914062 444.039062 836.375 444.355469 836.824219 444.691406 C 837.269531 445.03125 837.699219 445.390625 838.109375 445.773438 C 838.523438 446.15625 838.914062 446.554688 839.285156 446.972656 C 839.65625 447.394531 840.007812 447.832031 840.335938 448.285156 C 840.667969 448.738281 840.972656 449.207031 841.253906 449.691406 C 841.539062 450.175781 841.796875 450.671875 842.03125 451.183594 C 842.265625 451.691406 842.472656 452.210938 842.65625 452.742188 C 842.839844 453.273438 842.996094 453.808594 843.128906 454.355469 C 843.257812 454.898438 843.359375 455.449219 843.4375 456.007812 C 843.511719 456.5625 843.5625 457.121094 843.582031 457.679688 C 843.605469 458.242188 843.597656 458.800781 843.566406 459.359375 C 843.53125 459.921875 843.46875 460.476562 843.382812 461.03125 Z M 843.382812 461.03125 " fill-opacity="1" fill-rule="nonzero"/></g></g></g><g clip-path="url(#d431113397)"><g clip-path="url(#b36b84a216)"><g clip-path="url(#6377ff9aee)"><path fill="#fffdfd" d="M 890.996094 468.628906 C 890.90625 469.179688 890.792969 469.730469 890.648438 470.269531 C 890.507812 470.8125 890.339844 471.347656 890.144531 471.875 C 889.949219 472.398438 889.730469 472.914062 889.484375 473.417969 C 889.238281 473.921875 888.96875 474.414062 888.675781 474.890625 C 888.382812 475.371094 888.066406 475.832031 887.726562 476.277344 C 887.386719 476.726562 887.027344 477.15625 886.648438 477.566406 C 886.265625 477.976562 885.867188 478.367188 885.445312 478.742188 C 885.027344 479.113281 884.589844 479.464844 884.136719 479.792969 C 883.679688 480.121094 883.210938 480.429688 882.726562 480.710938 C 882.246094 480.992188 881.746094 481.253906 881.238281 481.488281 C 880.726562 481.71875 880.207031 481.929688 879.679688 482.113281 C 879.148438 482.296875 878.609375 482.453125 878.066406 482.582031 C 877.519531 482.710938 876.96875 482.816406 876.414062 482.890625 C 875.859375 482.96875 875.300781 483.015625 874.742188 483.039062 C 874.179688 483.058594 873.621094 483.054688 873.058594 483.019531 C 872.5 482.988281 871.945312 482.925781 871.390625 482.835938 C 870.835938 482.75 870.289062 482.632812 869.746094 482.492188 C 869.203125 482.347656 868.667969 482.179688 868.144531 481.984375 C 867.617188 481.792969 867.101562 481.570312 866.597656 481.324219 C 866.09375 481.082031 865.601562 480.8125 865.125 480.519531 C 864.648438 480.222656 864.183594 479.90625 863.738281 479.570312 C 863.292969 479.230469 862.863281 478.871094 862.449219 478.488281 C 862.039062 478.109375 861.648438 477.707031 861.277344 477.289062 C 860.902344 476.867188 860.554688 476.433594 860.222656 475.976562 C 859.894531 475.523438 859.589844 475.054688 859.304688 474.570312 C 859.023438 474.085938 858.765625 473.589844 858.53125 473.078125 C 858.296875 472.570312 858.085938 472.050781 857.90625 471.519531 C 857.722656 470.992188 857.566406 470.453125 857.433594 469.90625 C 857.304688 469.363281 857.199219 468.8125 857.125 468.257812 C 857.046875 467.699219 857 467.144531 856.976562 466.582031 C 856.957031 466.023438 856.964844 465.460938 856.996094 464.902344 C 857.03125 464.34375 857.089844 463.785156 857.179688 463.230469 C 857.269531 462.679688 857.382812 462.128906 857.527344 461.585938 C 857.667969 461.046875 857.835938 460.511719 858.03125 459.984375 C 858.226562 459.460938 858.445312 458.945312 858.691406 458.441406 C 858.9375 457.9375 859.207031 457.445312 859.5 456.96875 C 859.792969 456.488281 860.109375 456.027344 860.449219 455.582031 C 860.785156 455.132812 861.148438 454.703125 861.527344 454.292969 C 861.910156 453.882812 862.308594 453.488281 862.730469 453.117188 C 863.148438 452.746094 863.585938 452.394531 864.039062 452.066406 C 864.492188 451.738281 864.960938 451.429688 865.445312 451.148438 C 865.929688 450.867188 866.425781 450.605469 866.9375 450.371094 C 867.445312 450.136719 867.964844 449.929688 868.496094 449.746094 C 869.027344 449.5625 869.5625 449.40625 870.109375 449.277344 C 870.65625 449.144531 871.207031 449.042969 871.761719 448.964844 C 872.316406 448.890625 872.875 448.839844 873.433594 448.820312 C 873.996094 448.800781 874.554688 448.804688 875.113281 448.839844 C 875.675781 448.871094 876.230469 448.933594 876.785156 449.023438 C 877.339844 449.109375 877.886719 449.226562 878.429688 449.367188 C 878.972656 449.511719 879.507812 449.679688 880.03125 449.871094 C 880.558594 450.066406 881.074219 450.289062 881.578125 450.53125 C 882.082031 450.777344 882.570312 451.046875 883.050781 451.339844 C 883.527344 451.632812 883.988281 451.949219 884.4375 452.289062 C 884.882812 452.628906 885.3125 452.988281 885.722656 453.371094 C 886.136719 453.75 886.527344 454.152344 886.898438 454.570312 C 887.269531 454.992188 887.621094 455.425781 887.949219 455.882812 C 888.28125 456.335938 888.585938 456.804688 888.867188 457.289062 C 889.152344 457.773438 889.410156 458.269531 889.644531 458.777344 C 889.878906 459.289062 890.085938 459.808594 890.269531 460.339844 C 890.453125 460.867188 890.609375 461.40625 890.742188 461.953125 C 890.871094 462.496094 890.972656 463.046875 891.050781 463.601562 C 891.125 464.160156 891.175781 464.714844 891.195312 465.277344 C 891.21875 465.835938 891.210938 466.398438 891.179688 466.957031 C 891.144531 467.515625 891.082031 468.074219 890.996094 468.628906 Z M 890.996094 468.628906 " fill-opacity="1" fill-rule="nonzero"/></g></g></g><g clip-path="url(#6d243b0a1c)"><g clip-path="url(#52acd851ce)"><g clip-path="url(#88845d30b9)"><path fill="#fffdfd" d="M 748.941406 429.050781 L 764.773438 431.574219 C 768.9375 432.242188 772.855469 429.386719 773.515625 425.238281 C 774.175781 421.09375 771.324219 417.15625 767.179688 416.496094 L 751.347656 413.96875 C 747.179688 413.304688 743.265625 416.160156 742.601562 420.308594 C 741.941406 424.453125 744.773438 428.386719 748.941406 429.050781 Z M 748.941406 429.050781 " fill-opacity="1" fill-rule="nonzero"/></g></g></g><g clip-path="url(#c36f361e83)"><g clip-path="url(#d9155fdba0)"><g clip-path="url(#a6500bc2ed)"><path fill="#fffdfd" d="M 715.398438 408.234375 L 699.566406 405.710938 C 695.402344 405.042969 691.484375 407.898438 690.824219 412.046875 C 690.164062 416.191406 692.996094 420.125 697.160156 420.789062 L 712.996094 423.316406 C 717.160156 423.980469 721.074219 421.125 721.738281 416.976562 C 722.398438 412.832031 719.546875 408.898438 715.398438 408.234375 Z M 715.398438 408.234375 " fill-opacity="1" fill-rule="nonzero"/></g></g></g><g fill="#000000" fill-opacity="1"><g transform="translate(145.271186, 498.350945)"><g><path d="M 75.53125 -65.578125 C 83.453125 -71.3125 87.28125 -78.96875 87.015625 -88.5625 C 86.546875 -96.046875 85 -103.09375 81.828125 -109.71875 C 78.640625 -116.359375 74.90625 -122.515625 70.578125 -128.171875 C 57.328125 -144.953125 40.609375 -154.84375 18.90625 -156.09375 C 2.484375 -156.890625 -13.375 -154.734375 -28.53125 -148.28125 C -37.3125 -144.71875 -46.140625 -144.140625 -55.078125 -145.390625 C -59.546875 -146.03125 -63.921875 -147.703125 -66.828125 -151.140625 C -72.171875 -157.421875 -75.25 -165.125 -74.28125 -173.828125 C -73.375 -181.46875 -68.203125 -186.34375 -61.359375 -188.703125 C -54.484375 -191.59375 -48.1875 -190.546875 -42.8125 -184.796875 C -41.59375 -183.359375 -40.09375 -182.1875 -38.890625 -180.75 C -33.65625 -176.328125 -29.6875 -176.28125 -24.296875 -180.34375 C -22.328125 -181.515625 -20.328125 -183.203125 -18.328125 -184.90625 C -11.109375 -192.03125 -10.421875 -200.484375 -17.25 -207.9375 C -22.390625 -213.421875 -27.8125 -218.65625 -34.09375 -223.140625 C -38.625 -226.171875 -43.578125 -227.40625 -49.21875 -226.53125 C -53.25 -226.046875 -57.359375 -224.515625 -60.5 -221.859375 C -64.5 -218.46875 -68.21875 -215.3125 -71.6875 -211.875 C -76.828125 -207.515625 -81.734375 -202.875 -87.59375 -199.375 C -93.1875 -196.109375 -98.046875 -191.984375 -102.15625 -187 C -105.109375 -183.515625 -108.046875 -180.046875 -111 -176.546875 C -112.171875 -175.0625 -113.359375 -173.5625 -114.328125 -171.78125 C -116.8125 -167.203125 -116.640625 -162.9375 -113.53125 -158.6875 C -111.59375 -156.40625 -109.609375 -154.65625 -107.671875 -152.375 C -102.28125 -146.609375 -97.734375 -140.65625 -93.78125 -133.671875 C -88.125 -124.703125 -82.203125 -115.984375 -76.046875 -106.96875 C -74.140625 -104.171875 -71.71875 -101.3125 -69.28125 -98.453125 C -62.40625 -91.5 -52.5625 -91.484375 -45.59375 -98.890625 C -43.25 -101.375 -41.171875 -104.109375 -39.859375 -107.203125 C -35.71875 -115.625 -29.140625 -121.203125 -20.359375 -124.734375 C -18.15625 -125.609375 -15.671875 -126.75 -13.453125 -127.625 C -5.203125 -131.203125 3.015625 -130.796875 11 -127.75 C 28.515625 -121 39.421875 -108.140625 44.34375 -90.21875 C 46.78125 -80.96875 43.96875 -72.671875 36.015625 -66.421875 C 30.296875 -61.5625 23.265625 -60.03125 15.625 -60.921875 C 7.203125 -62.140625 1.234375 -66.890625 -1.015625 -75.3125 C -1.890625 -77.515625 -1.96875 -79.90625 -2.609375 -81.8125 C -4.390625 -89.15625 -10.3125 -91.484375 -16.75 -87.5 C -21.5625 -83.90625 -25.859375 -80.265625 -29.453125 -75.25 C -32.765625 -70.46875 -33.4375 -65.46875 -31.484375 -60.25 C -30.109375 -57.484375 -28.75 -54.71875 -27.09375 -52.203125 C -21.15625 -43.453125 -14.984375 -34.453125 -8.78125 -25.984375 C -6.15625 -22.296875 -2.96875 -19.109375 0.859375 -16.9375 C 5.875 -13.34375 11.15625 -12.90625 16.65625 -15.125 C 19.6875 -16.203125 22.4375 -17.5625 24.734375 -19.5 C 30.390625 -23.828125 35.8125 -28.421875 40.25 -33.65625 C 48.109375 -42.3125 55.96875 -50.4375 65.0625 -57.65625 C 68.484375 -60.578125 72.171875 -63.203125 75.53125 -65.578125 Z M 75.53125 -65.578125 "/></g></g></g><g fill="#000000" fill-opacity="1"><g transform="translate(241.501636, 414.633814)"><g><path d="M 77.34375 -47.3125 C 81.1875 -49.65625 84.6875 -51.796875 88.21875 -53.953125 C 96.328125 -59.359375 102.234375 -66.9375 105.703125 -75.625 C 107.890625 -81.375 109.78125 -86.90625 108.765625 -92.890625 C 106 -107.4375 100.828125 -120.953125 88.28125 -129.96875 C 82.1875 -134.15625 77.71875 -139.34375 73.671875 -145.203125 C 68.46875 -153.015625 61.984375 -160 54.421875 -165.9375 C 46.671875 -172.15625 40.171875 -179.1875 34.453125 -187.09375 C 29.125 -194.375 23.796875 -201.65625 18.125 -208.734375 C 13.390625 -215.046875 8 -220.984375 3.390625 -227.8125 C -1.4375 -234.984375 -5.75 -236.296875 -14.0625 -233.390625 C -15.03125 -232.8125 -16.171875 -232.53125 -17.140625 -231.9375 C -25.78125 -228.84375 -33.78125 -223.953125 -41.453125 -219.265625 C -49.4375 -214.375 -57.21875 -209.1875 -65.5 -205.4375 C -69.71875 -203.734375 -73.359375 -201.078125 -76.40625 -197.453125 C -80.875 -192.53125 -81.734375 -186.75 -78.015625 -180.671875 C -75.859375 -177.15625 -73.078125 -174.03125 -70.59375 -170.703125 C -68.328125 -167.703125 -65.734375 -164.90625 -64.609375 -161.625 C -61.59375 -153.828125 -58.03125 -145.890625 -54.703125 -138.265625 C -53.0625 -134.890625 -52.078125 -131.09375 -51.078125 -127.296875 C -47.40625 -111.984375 -41.953125 -97.296875 -35.859375 -83.03125 C -31.40625 -72.15625 -26.5 -61.96875 -22.546875 -51.21875 C -18.1875 -37.640625 -8.65625 -28.515625 3.34375 -21.796875 C 11.484375 -17.140625 19.90625 -17.015625 28.546875 -20.109375 C 33.28125 -21.671875 38.140625 -23.765625 42.109375 -26.640625 C 50.484375 -33.078125 59.5 -37.703125 69.03125 -42.21875 C 71.59375 -43.796875 74.46875 -45.546875 77.34375 -47.3125 Z M 56.4375 -103.03125 C 58.984375 -96.703125 60.71875 -90.28125 59.953125 -83.671875 C 59.40625 -78.0625 57.65625 -73.03125 53.953125 -69.015625 C 47.921875 -63.125 41.125 -59.84375 32.625 -63 C 29.859375 -63.953125 26.875 -65.203125 24.234375 -66.65625 C 17.515625 -70.453125 11.046875 -75.265625 5.546875 -80.6875 C -4.4375 -91.28125 -12.390625 -103.5625 -17.90625 -116.859375 C -20.84375 -123.828125 -23.796875 -130.8125 -28.03125 -137.015625 C -35.59375 -148.640625 -38 -161.21875 -38.625 -174.453125 C -38.84375 -179.140625 -38.0625 -183.5625 -36.75 -187.890625 C -34.0625 -195.703125 -27.78125 -199.09375 -19.546875 -197.109375 C -17.28125 -196.28125 -15.03125 -195.46875 -12.578125 -194.328125 C -9.9375 -192.875 -7.296875 -191.421875 -5.078125 -189.265625 C 11.421875 -175.1875 25.5 -160.09375 37.625 -140.265625 C 44.328125 -128.5625 50.609375 -116.15625 56.4375 -103.03125 Z M 56.4375 -103.03125 "/></g></g></g><g fill="#000000" fill-opacity="1"><g transform="translate(357.02368, 342.314369)"><g><path d="M -14.625 -66.46875 C -11.796875 -59.546875 -8.953125 -52.59375 -5.984375 -45.328125 C -4.078125 -41.640625 -2.515625 -37.828125 -0.609375 -34.140625 C 2.359375 -28.890625 6.21875 -24.40625 11.734375 -21.796875 C 20.53125 -18.09375 29.4375 -16.078125 38.78125 -17.0625 C 43.96875 -17.171875 48.625 -18.65625 52.859375 -21.203125 C 62 -26.5625 71.375 -30.390625 82.0625 -31.921875 C 88.40625 -33.28125 94.296875 -35.6875 99.609375 -39.5 C 103.90625 -42.875 108.046875 -46.578125 111.90625 -51.015625 C 117.984375 -57.921875 121.125 -66.09375 121.46875 -75.15625 C 121.71875 -89.40625 118.546875 -103.09375 111.09375 -115.421875 C 108.84375 -118.953125 106.09375 -122.703125 103.34375 -126.4375 C 97.296875 -135.28125 91.796875 -144.78125 87 -154.5625 C 81.90625 -165.015625 75.96875 -175.5625 68.40625 -184.203125 C 64.40625 -189.03125 61.453125 -194.296875 59.390625 -200.34375 C 55.484375 -210.875 50.53125 -221.015625 47.796875 -231.625 C 45.875 -239.34375 40.984375 -241.390625 33.90625 -238.890625 C 28.015625 -236.484375 22.734375 -233.515625 17.765625 -229.875 C 12.78125 -226.234375 12.453125 -222.03125 15.984375 -217.40625 C 16.125 -217.0625 16.75 -216.515625 16.890625 -216.15625 C 24.046875 -208.5625 28.703125 -199.125 33.015625 -189.578125 C 37.6875 -180.140625 42.34375 -170.703125 47.359375 -161.421875 C 53.21875 -150.046875 58.9375 -139.046875 62.71875 -126.8125 C 64.859375 -119.59375 68.03125 -112.8125 71.21875 -106 C 74.203125 -98.71875 76.46875 -91.15625 76.53125 -83.09375 C 76.734375 -74.671875 74.796875 -66.578125 69.546875 -59.59375 C 63.0625 -51.6875 53.96875 -49.1875 44.84375 -52.71875 C 41.40625 -54.15625 38.546875 -56.234375 35.53125 -58.65625 C 27.625 -65.125 23.234375 -73.859375 19.203125 -82.71875 C 16.15625 -89.171875 12.984375 -95.96875 8.890625 -102 C 5.234375 -106.984375 2.625 -112.375 1.609375 -118.84375 C 0.09375 -127.53125 -3.65625 -135.71875 -8.796875 -143.328125 C -14.140625 -152.484375 -18.109375 -162.1875 -19.671875 -172.890625 C -20.703125 -181.359375 -22.5625 -189.921875 -22.921875 -198.671875 C -22.921875 -200.703125 -23.296875 -202.578125 -24 -204.3125 C -25.5625 -208.125 -28.421875 -210.171875 -32.46875 -210.140625 C -34.140625 -210.265625 -36.359375 -209.78125 -38.09375 -209.078125 C -46 -206.640625 -53.421875 -201.984375 -60.609375 -197.84375 C -66.109375 -194.390625 -67.03125 -188.75 -62.734375 -183.203125 C -60.765625 -180.359375 -58.109375 -177.8125 -55.4375 -175.265625 C -50.609375 -170.359375 -47 -164.546875 -44.65625 -157.828125 C -41.6875 -150.53125 -38.84375 -143.609375 -36.015625 -136.65625 C -32.40625 -126.796875 -28.984375 -116.453125 -28.28125 -105.828125 C -27.6875 -100.390625 -26.390625 -95.25 -24.0625 -90.546875 C -20.796875 -82.5625 -17.546875 -74.59375 -14.28125 -66.609375 C -14.625 -66.46875 -14.625 -66.46875 -14.625 -66.46875 Z M -14.625 -66.46875 "/></g></g></g><g fill="#000000" fill-opacity="1"><g transform="translate(485.319104, 288.733412)"><g><path d="M -28.59375 -207.21875 C -36.015625 -204.34375 -37.8125 -198.9375 -34.578125 -191.59375 C -33.25 -189.21875 -31.5625 -186.90625 -29.875 -184.625 C -25.71875 -178.28125 -22.265625 -171.765625 -20.125 -164.1875 C -16.640625 -154.234375 -13.171875 -144.265625 -10.0625 -134.234375 C -8.171875 -127.734375 -6.28125 -121.25 -5.859375 -114.421875 C -5.25 -106.875 -4.28125 -99.40625 -1.859375 -92.28125 C 2.5 -80.21875 5.09375 -67.34375 7.265625 -54.78125 C 9.078125 -43.671875 9.625 -33.015625 5.90625 -22.53125 C 5.15625 -20.8125 4.84375 -18.8125 4.546875 -16.828125 C 3.5 -8.125 8.40625 -3.5 16.984375 -4.71875 C 18.90625 -4.78125 21.09375 -5.28125 22.828125 -6.078125 C 28.765625 -8.625 34.875 -10.421875 41.09375 -11.875 C 43.265625 -12.375 45.375 -13.265625 47.40625 -14.484375 C 51.171875 -16.53125 51.859375 -20.15625 49.828125 -23.890625 C 48.421875 -26.65625 46.015625 -28.78125 43.296875 -30.46875 C 35.203125 -35.515625 30.328125 -43.21875 26.484375 -51.546875 C 23.0625 -59.609375 20.75 -67.921875 19.0625 -76.765625 C 17.046875 -87.046875 14.671875 -97.28125 10.765625 -107.515625 C 9 -111.71875 8.28125 -116.5625 7.984375 -121.109375 C 7.40625 -130.21875 6.46875 -139.21875 4.0625 -147.890625 C 3.640625 -149.71875 3.21875 -151.53125 3.15625 -153.453125 C 3.171875 -155 3.65625 -156.265625 4.5 -157.59375 C 4.96875 -158.859375 7.453125 -159.828125 8.890625 -158.625 C 10.21875 -157.796875 11.28125 -156.5 12.34375 -155.21875 C 14.671875 -151.890625 17.046875 -148.21875 19.09375 -144.453125 C 23.15625 -136.953125 27.5625 -129.5 32 -122.078125 C 33.859375 -119.046875 35.796875 -115.65625 37.296875 -112.546875 C 45.796875 -94.125 56.78125 -76.6875 67.6875 -59.609375 C 72.640625 -51.515625 78.515625 -44.4375 84.046875 -37.25 C 89.296875 -31.15625 96.046875 -26.96875 104.3125 -26.203125 C 110.578125 -25.734375 116.65625 -25.984375 122.5 -27.34375 C 132.8125 -29.34375 135.546875 -35.765625 130.421875 -44.578125 C 128.3125 -48.6875 125.734375 -53.109375 124.359375 -57.390625 C 121.5 -64.8125 118.984375 -72.3125 116.1875 -79.34375 C 114.515625 -83.1875 113.671875 -86.84375 113.09375 -90.921875 C 112.15625 -99.953125 110.03125 -109.078125 106.171875 -117.421875 C 103.09375 -124.015625 101.203125 -130.484375 99.59375 -137.421875 C 95.9375 -153.109375 94.5625 -168.953125 93.1875 -184.78125 C 92.4375 -194.609375 92.140625 -204.15625 93.65625 -214.140625 C 93.96875 -216.125 93.8125 -218.390625 93.6875 -220.671875 C 92.9375 -225.5 90.265625 -228.734375 85.546875 -229.1875 C 74.859375 -230.515625 64.1875 -228.421875 54.640625 -223.140625 C 50.59375 -220.65625 49.640625 -216.578125 52.171875 -212.171875 C 53.421875 -210.140625 55.109375 -207.859375 56.625 -206.28125 C 63.140625 -198.171875 67.8125 -189.65625 71.21875 -180.0625 C 73.875 -171.828125 76.9375 -163.703125 80.703125 -155.734375 C 83 -150.875 84.1875 -145.75 84.65625 -140.46875 C 85.765625 -130.734375 86.421875 -121.265625 87.8125 -111.984375 C 88.578125 -108.6875 89.515625 -104.671875 86.125 -102.734375 C 81.890625 -101 79.515625 -104.65625 77.28125 -107.609375 C 70.671875 -114.546875 66.015625 -123.0625 63.15625 -132.03125 C 61.5 -137.390625 59.515625 -142.71875 55.765625 -147.21875 C 46.84375 -157.453125 40.3125 -169.015625 36.15625 -181.921875 C 35.828125 -183.359375 35.03125 -185.09375 34.328125 -186.484375 C 30.875 -192.984375 26.796875 -198.9375 21.421875 -203.859375 C 13.546875 -211.265625 4.5 -213.765625 -5.59375 -212.578125 C -9.34375 -212.09375 -24.671875 -208.53125 -28.59375 -207.21875 Z M -28.59375 -207.21875 "/></g></g></g><g fill="#000000" fill-opacity="1"><g transform="translate(615.207146, 257.18622)"><g><path d="M 84.671875 -3.046875 C 93.625 -4.078125 102.09375 -6.1875 110.484375 -9.796875 C 119.25 -13.0625 125.59375 -19.125 128.703125 -28.390625 C 132.734375 -39.9375 136.015625 -51.828125 138.15625 -63.984375 C 139.5625 -70.484375 139.453125 -77.234375 137.84375 -83.890625 C 135.6875 -93.109375 133.90625 -102.390625 131.734375 -111.609375 C 130.25 -116.390625 129.15625 -121.203125 127.328125 -125.9375 C 121.390625 -140.546875 115.46875 -155.15625 109.1875 -169.359375 C 104.640625 -180.296875 98.703125 -190.015625 90.171875 -198.796875 C 80.453125 -208.609375 68.84375 -213.40625 55 -212.796875 C 48.609375 -212.703125 42.609375 -212.65625 36.234375 -212.578125 C 31.703125 -212.625 27.234375 -212.3125 23.15625 -211.640625 C 16.8125 -210.8125 10.125 -209.953125 4.21875 -208.390625 C -2.40625 -206.421875 -4.40625 -202.90625 -3.5625 -196.203125 C -3.34375 -193.203125 -2.375 -190.265625 -1.40625 -187.34375 C 3.046875 -172.25 6.796875 -156.734375 6.828125 -140.59375 C 6.84375 -134.953125 8 -129.421875 9.15625 -123.859375 C 11.453125 -112.765625 13.390625 -101.625 12.34375 -89.90625 C 12.015625 -83.859375 12.46875 -77.515625 14.03125 -71.609375 C 16.140625 -63.140625 16.390625 -54.515625 14.375 -45.75 C 12.65625 -38.09375 10.609375 -30.046875 8.921875 -22.046875 C 7.984375 -19.359375 7.484375 -16.296875 7.71875 -12.9375 C 7.8125 -6.578125 11.0625 -2.671875 17.890625 -2.03125 C 21.296875 -1.53125 25.015625 -2.171875 28.734375 -2.4375 C 33.96875 -2.8125 39.578125 -3.21875 45.265625 -2.484375 C 54.75 -1.28125 64.125 -1.21875 73.84375 -2.28125 C 77.203125 -2.515625 80.9375 -2.78125 84.671875 -3.046875 Z M 100.59375 -79.703125 C 101.53125 -66.625 97.484375 -54.6875 91.15625 -43.71875 C 90.140625 -42.140625 89.125 -40.5625 87.734375 -38.96875 C 82.875 -33.359375 72.078125 -32.203125 66.46875 -37.0625 C 62.421875 -40.90625 58.78125 -44.78125 55.828125 -49.078125 C 49.453125 -59.515625 44.90625 -70.453125 42.90625 -82.71875 C 41.34375 -93.859375 39.421875 -104.984375 37.484375 -116.5 C 36.75 -121.328125 36.375 -126.5625 37.140625 -131.515625 C 38.40625 -140.234375 39.6875 -148.59375 40.5625 -157.296875 C 41.390625 -161.484375 42.234375 -165.296875 43.828125 -169.546875 C 45.078125 -173.015625 47.125 -175.796875 49.5625 -178.59375 C 54.84375 -183.484375 61.203125 -183.9375 67.125 -179.84375 C 68.296875 -179.171875 69.5 -178.140625 70.3125 -177.078125 C 82.453125 -165.171875 91.703125 -151.1875 92.96875 -133.625 C 93.65625 -123.90625 95.453125 -114.640625 98 -105.4375 C 99.546875 -99.546875 99.609375 -93.53125 100.0625 -87.1875 C 100.25 -84.5625 100.40625 -82.328125 100.59375 -79.703125 Z M 100.59375 -79.703125 "/></g></g></g><g fill="#000000" fill-opacity="1"><g transform="translate(749.873652, 246.621599)"><g><path d="M 99.78125 7.078125 C 109.4375 8.625 117.5625 5.921875 124.140625 -1.0625 C 129.109375 -6.65625 133.015625 -12.734375 135.453125 -19.671875 C 137.90625 -26.625 139.609375 -33.609375 140.546875 -40.6875 C 143.0625 -61.90625 138.234375 -80.71875 123.78125 -96.953125 C 112.75 -109.140625 100.015625 -118.84375 84.734375 -124.984375 C 76 -128.703125 69.34375 -134.515625 63.921875 -141.734375 C 61.203125 -145.34375 59.3125 -149.625 59.671875 -154.109375 C 60.359375 -162.328125 63.609375 -169.9375 70.453125 -175.40625 C 76.5 -180.171875 83.609375 -179.96875 90.125 -176.796875 C 97.015625 -173.96875 100.734375 -168.78125 100.453125 -160.921875 C 100.3125 -159.046875 100.53125 -157.140625 100.375 -155.28125 C 100.9375 -148.453125 103.71875 -145.59375 110.40625 -144.671875 C 112.609375 -144.109375 115.234375 -143.890625 117.84375 -143.671875 C 128 -143.59375 134.453125 -149.09375 134.90625 -159.1875 C 135.15625 -166.703125 135.015625 -174.21875 133.75 -181.84375 C 132.703125 -187.1875 130.046875 -191.546875 125.4375 -194.9375 C 122.265625 -197.4375 118.28125 -199.28125 114.1875 -199.609375 C 108.953125 -200.046875 104.09375 -200.453125 99.203125 -200.46875 C 92.5 -201.03125 85.734375 -201.203125 79.125 -202.875 C 72.859375 -204.53125 66.5 -205.046875 60.078125 -204.453125 C 55.53125 -204.0625 50.984375 -203.6875 46.4375 -203.3125 C 44.53125 -203.09375 42.640625 -202.875 40.71875 -202.296875 C 35.703125 -200.828125 32.8125 -197.671875 32.015625 -192.46875 C 31.765625 -189.484375 31.921875 -186.828125 31.671875 -183.859375 C 31.40625 -175.984375 30.40625 -168.53125 28.28125 -160.828125 C 25.921875 -150.484375 23.9375 -140.125 21.9375 -129.40625 C 21.28125 -126.078125 20.96875 -122.328125 20.671875 -118.59375 C 20.59375 -108.828125 27.5625 -101.875 37.734375 -102.15625 C 41.125 -102.25 44.546875 -102.71875 47.671875 -103.96875 C 56.546875 -107 65.140625 -106.296875 73.859375 -102.578125 C 76.03125 -101.640625 78.59375 -100.671875 80.765625 -99.734375 C 89.140625 -96.421875 94.65625 -90.34375 98.140625 -82.53125 C 105.75 -65.359375 104.359375 -48.5625 95.15625 -32.390625 C 90.328125 -24.140625 82.5 -20.265625 72.453125 -21.46875 C 64.96875 -22.09375 58.90625 -25.96875 54.140625 -32 C 49.046875 -38.828125 48.1875 -46.40625 52.5625 -53.9375 C 53.484375 -56.125 55.140625 -57.875 56.03125 -59.65625 C 59.953125 -66.125 57.421875 -71.96875 50.0625 -73.703125 C 44.109375 -74.5625 38.5 -75.03125 32.40625 -74.03125 C 26.6875 -73 22.671875 -69.9375 20.375 -64.859375 C 19.375 -61.921875 18.390625 -59.015625 17.765625 -56.0625 C 15.78125 -45.6875 13.78125 -34.953125 12.171875 -24.5625 C 11.421875 -20.109375 11.4375 -15.59375 12.578125 -11.359375 C 13.578125 -5.28125 17.015625 -1.21875 22.46875 1.09375 C 25.359375 2.46875 28.28125 3.453125 31.265625 3.703125 C 38.34375 4.671875 45.421875 5.25 52.25 4.671875 C 63.9375 4.125 75.25 3.921875 86.78125 5.25 C 91.265625 5.625 95.71875 6.375 99.78125 7.078125 Z M 99.78125 7.078125 "/></g></g></g><g fill="#000000" fill-opacity="1"><g transform="translate(877.144161, 255.559266)"><g><path d="M 130.75 31.5 C 132.578125 31.9375 134.125 31.9375 135.671875 31.90625 C 143.6875 32.296875 147.640625 27.09375 145.9375 19.75 C 145.359375 17.296875 144.625 15.5625 143.609375 13.40625 C 139.328125 3.890625 137.4375 -5.8125 138.359375 -16 C 139.40625 -31.53125 136.375 -46.15625 130.078125 -60 C 128.78125 -62.625 127.9375 -65.515625 127.46875 -68.328125 C 126.328125 -73.21875 128.09375 -77.421875 132.640625 -80.203125 C 135.265625 -81.484375 137.890625 -82.78125 140.125 -84.171875 C 143.5625 -85.640625 147.109375 -87.484375 150.625 -89.328125 C 155.875 -91.9375 159.296875 -96.5 161.703125 -101.6875 C 165.625 -110 167.375 -118.828125 166.84375 -127.828125 C 166.046875 -137.265625 165.96875 -146.546875 168.953125 -155.84375 C 169.40625 -157.65625 169.5625 -159.921875 169.640625 -161.84375 C 169.875 -167.578125 167 -171.71875 161.890625 -174.484375 C 160.171875 -175.296875 158.796875 -176.015625 156.984375 -176.453125 C 149.953125 -177.765625 142.78125 -179.875 135.671875 -180.8125 C 121.9375 -182.953125 108.375 -185.84375 94.875 -190.640625 C 89.96875 -192.59375 84.765625 -193.46875 79.65625 -194.703125 C 75.578125 -195.28125 71.125 -195.984375 67.203125 -195.765625 C 58.75 -195.890625 54.4375 -190.75 54.328125 -182.296875 C 54.703125 -180.65625 54.71875 -179.140625 55.09375 -177.5 C 57.296875 -164.25 55.046875 -151.671875 50.875 -139.203125 C 46.453125 -125.625 43.03125 -111.40625 40.34375 -97.03125 C 39.8125 -94.84375 39.640625 -92.5625 38.765625 -90.484375 C 33.796875 -74.71875 29.5625 -58.765625 26.4375 -42.5625 C 24.953125 -34.84375 22.109375 -27.8125 17.8125 -21.15625 C 16.453125 -18.78125 14.65625 -16.125 13.6875 -13.65625 C 10.203125 -7.15625 12.328125 -1.65625 18.828125 1.84375 C 20.203125 2.546875 22.03125 2.984375 23.484375 3.34375 C 31.390625 5.625 39.609375 8.390625 47.171875 12.140625 C 49.265625 13.03125 51.828125 13.640625 54.46875 13.90625 C 58.65625 14.125 61.890625 11.828125 62.9375 7.453125 C 63.640625 4.5625 63.625 1.46875 62.78125 -1.4375 C 61.65625 -6.34375 60.515625 -11.234375 59.390625 -16.125 C 58.25 -21.03125 57.390625 -25.484375 58.171875 -30.3125 C 59.8125 -40.3125 62.90625 -49.96875 67.109375 -59.375 C 70.140625 -65.578125 75.390625 -69.703125 82.34375 -71.5 C 88.890625 -73 93.8125 -71.046875 97.953125 -65.8125 C 100.515625 -62.109375 102.265625 -58.21875 103.140625 -53.78125 C 104.84375 -46.421875 105.453125 -39.328125 105.234375 -32.078125 C 105.125 -23.609375 103.828125 -15.078125 102.625 -6.875 C 101.21875 0.484375 101.296875 8.21875 103 15.578125 C 104.234375 21.640625 107.90625 25.625 113.640625 27.375 C 116.546875 28.078125 128.21875 30.890625 130.75 31.5 Z M 83.109375 -132.203125 C 87.46875 -142.328125 94.78125 -150.203125 103.25 -156.640625 C 110.3125 -161.890625 120.296875 -161.796875 127.609375 -156.9375 C 131.90625 -153.96875 134.40625 -149.90625 135.15625 -145.09375 C 137.09375 -132.3125 132.625 -121.828125 122.34375 -114.265625 C 119.453125 -111.875 116.296875 -109.9375 113.203125 -108.390625 C 106.078125 -104.3125 98.640625 -100.703125 91.59375 -97.03125 C 89.875 -96.28125 88.140625 -95.546875 86.078125 -94.890625 C 79.53125 -93.375 74.3125 -97.328125 74.4375 -104.21875 C 74.6875 -106.875 75.296875 -109.421875 75.828125 -111.609375 C 78.3125 -118.734375 80.34375 -125.546875 83.109375 -132.203125 Z M 83.109375 -132.203125 "/></g></g></g><g fill="#000000" fill-opacity="1"><g transform="translate(1009.904389, 286.907791)"><g><path d="M 65.34375 28.3125 C 71.9375 31 78.515625 33.6875 84.765625 36.25 C 91 38.796875 97.25 41.34375 103.78125 43.1875 C 114.734375 46.0625 120.75 43.25 126.59375 33.90625 C 127.359375 33.015625 127.78125 31.96875 128.21875 30.921875 C 133.875 19.078125 138.46875 6.796875 142.75 -5.640625 C 145.375 -13.0625 143.609375 -18.640625 136.875 -23.015625 C 131.765625 -26.3125 126 -29.078125 120.59375 -31.6875 C 119.203125 -32.265625 117.328125 -32.625 115.796875 -32.828125 C 109.546875 -33.359375 105.34375 -29 106.125 -23.03125 C 106.265625 -21.359375 107.09375 -19.390625 107.546875 -17.578125 C 108.4375 -14.796875 108.96875 -12.15625 109.03125 -9.28125 C 108.484375 -3.046875 106.359375 2.171875 100.578125 5.46875 C 94.765625 8.765625 89.140625 7.65625 84.015625 4.375 C 78.34375 0.4375 73.78125 -4.265625 71.265625 -10.96875 C 69.296875 -17.046875 68.828125 -22.875 69.859375 -29.328125 C 70.953125 -34.984375 72.515625 -40.796875 74.640625 -46 C 78.1875 -54.6875 83.53125 -61.796875 90.328125 -67.53125 C 100.046875 -76.515625 111.890625 -77.75 122.0625 -71.96875 C 124.703125 -70.484375 127.0625 -68.296875 129.40625 -66.125 C 131.21875 -64.578125 132.65625 -63.1875 134.4375 -61.640625 C 139.578125 -58.328125 143.34375 -59.625 145.96875 -65.03125 C 146.25 -65.71875 146.390625 -66.0625 146.671875 -66.765625 C 148.546875 -75.3125 148.875 -84.078125 147.046875 -92.515625 C 145.53125 -99.609375 140.53125 -103.28125 133.234375 -104.234375 C 126.484375 -104.5625 120.09375 -104.734375 113.109375 -103.53125 C 111.453125 -103.421875 109.296875 -103.078125 107.46875 -102.59375 C 101.421875 -102.65625 97.6875 -105.390625 96.890625 -111.390625 C 96.546875 -113.546875 96.578125 -115.5625 97.078125 -117.78125 C 98.515625 -123.28125 100.5 -128.125 104.765625 -131.640625 C 113.9375 -139.21875 124.1875 -143.53125 136.09375 -143.9375 C 145.828125 -144 153.046875 -139.859375 157.71875 -131.46875 C 159.421875 -128.734375 161 -125.671875 162.578125 -122.578125 C 163.546875 -120.984375 164.71875 -118.890625 166.03125 -117.125 C 170.984375 -111.46875 176.15625 -112.1875 178.625 -119.265625 C 181.171875 -125.515625 181.84375 -132.125 181.859375 -139.015625 C 181.265625 -144.5 179.0625 -149.03125 174.5625 -152.890625 C 171.515625 -155.359375 168.484375 -157.828125 164.53125 -159.03125 C 148.578125 -165.546875 132.484375 -173.734375 115.671875 -178.171875 C 111.234375 -179.1875 107.0625 -180.890625 102.90625 -182.578125 C 100.484375 -183.578125 98.046875 -184.5625 95.828125 -185.0625 C 86.875 -187.90625 82.421875 -184.890625 81.421875 -175.578125 C 81.203125 -174.03125 80.84375 -172.15625 80.96875 -170.484375 C 80.546875 -167.4375 80.09375 -164.390625 79.296875 -161.46875 C 74.796875 -143.46875 69.453125 -125.421875 63.046875 -107.796875 C 59.875 -99 56.53125 -89.828125 54.71875 -80.453125 C 53.703125 -76 51.859375 -71.484375 49.671875 -67.109375 C 43.671875 -55.40625 37.890625 -43.21875 32.09375 -31.015625 C 28.90625 -24.21875 25.390625 -17.5625 19.90625 -12.109375 C 19.140625 -11.203125 18.15625 -10.796875 17.734375 -9.75 C 13.09375 -4.34375 13.28125 0.15625 18.53125 5.140625 C 23.25 9.5 28.21875 13.15625 34.46875 15.703125 C 44.875 19.953125 55.28125 24.203125 65.34375 28.3125 Z M 65.34375 28.3125 "/></g></g></g><g fill="#000000" fill-opacity="1"><g transform="translate(1123.308272, 330.488605)"><g><path d="M 136.46875 -160.3125 C 133.453125 -162.59375 129.5625 -164.09375 125.96875 -165.40625 C 118.984375 -168.34375 112.9375 -166.34375 106.875 -162.140625 C 104.140625 -159.84375 102.203125 -156.65625 101.078125 -153.390625 C 99.828125 -148.4375 103.390625 -144.953125 108.21875 -146.40625 C 110.28125 -146.90625 112.21875 -147.90625 114.796875 -148.53125 C 121.171875 -150.34375 126.40625 -146.703125 127.71875 -140.21875 C 127.9375 -137 127.859375 -133.96875 126.625 -131.21875 C 125.171875 -128.140625 123.421875 -125.25 121.03125 -122.78125 C 114.8125 -116.90625 109.875 -110.265625 105.265625 -103.4375 C 102.984375 -100.421875 100.71875 -97.421875 98.015625 -95.140625 C 87 -84.28125 76.296875 -73.265625 64.109375 -64.03125 C 58.34375 -59.625 53.234375 -54.859375 49.203125 -48.96875 C 45.375 -43.421875 40.375 -38.125 35.140625 -33.859375 C 27.3125 -26.78125 21.53125 -18.03125 16.578125 -9.203125 C 13.25 -3.75 13.484375 1.640625 16.40625 6.9375 C 19.078125 11.203125 22.421875 15 26.90625 17.734375 C 34.90625 22.625 42.90625 27.5 51.21875 32.578125 C 52.8125 33.546875 54.609375 34.203125 56.40625 34.859375 C 60.71875 35.734375 64.265625 33.515625 65.125 29.21875 C 65.84375 26.59375 65.546875 24.203125 65.25 21.828125 C 64 16.671875 62.890625 12.046875 61.640625 6.890625 C 59.390625 -2.375 59.96875 -11.25 63.265625 -20.21875 C 64.296875 -22.640625 65.15625 -24.765625 65.890625 -27.390625 C 71.515625 -42.390625 81.0625 -53.6875 96.0625 -60.328125 C 106 -64.359375 115.890625 -66.21875 126.484375 -64.125 C 138.546875 -61.609375 146.734375 -54.859375 148.890625 -42.578125 C 148.9375 -41.21875 149.5 -40 149.75 -38.96875 C 152.703125 -22.234375 150.859375 -6.25 140.078125 7.796875 C 133.265625 16.8125 125.8125 25.421875 118.875 33.921875 C 115.5 38.015625 110.734375 40.796875 105.71875 42.578125 C 103.65625 43.078125 101.390625 43.890625 99.328125 44.390625 C 95.84375 45.78125 93.328125 47.734375 92.84375 51.390625 C 92.171875 55.375 93.75 58.53125 97.28125 60.6875 C 99.1875 61.84375 101.421875 63.21875 103.859375 64.265625 C 109.578125 66.4375 114.875 69.234375 120.125 72.875 C 121.734375 73.859375 123.328125 74.828125 125.25 76 C 132.140625 79.765625 138.46875 78.796875 144.59375 73.78125 C 147.125 71.796875 149.53125 69.3125 151.28125 66.421875 C 154.328125 62.15625 156.109375 57.078125 157.5625 51.828125 C 159.734375 43.9375 162.546875 36.4375 166.015625 29.328125 C 171.359375 17.671875 176.53125 6.34375 180.421875 -5.765625 C 183.375 -14.9375 186.140625 -23.78125 189.421875 -32.75 C 191.65625 -39.296875 194.078125 -46.140625 195.484375 -52.765625 C 197.625 -64.1875 200.421875 -75.21875 204.34375 -85.984375 C 206.515625 -91.671875 207.640625 -97.125 207.8125 -103.171875 C 208.703125 -111.84375 205.421875 -118.671875 198.0625 -123.15625 C 193.578125 -125.890625 188.921875 -128.296875 184.234375 -130.71875 C 177.765625 -133.78125 172.015625 -137.296875 166.328125 -141.65625 C 160.65625 -146 154.703125 -149.1875 148.296875 -153.09375 C 144.078125 -154.78125 140.234375 -157.125 136.46875 -160.3125 Z M 175.328125 -88.765625 C 174.125 -82.46875 170.296875 -79.09375 164.25 -79.265625 C 161.75 -79.484375 159.25 -79.703125 156.625 -80.421875 C 150.71875 -82.265625 144.765625 -83.265625 138.53125 -83.140625 C 136.140625 -82.828125 133.515625 -83.5625 131.203125 -84.09375 C 126.96875 -85.796875 125.34375 -90.296875 128.015625 -93.953125 C 133.84375 -101.34375 140.640625 -108.1875 149.96875 -111.25 C 155.203125 -113.34375 161.0625 -112.828125 165.640625 -109.59375 C 173 -105.109375 176.984375 -96.53125 175.328125 -88.765625 Z M 175.328125 -88.765625 "/></g></g></g><g fill="#000000" fill-opacity="1"><g transform="translate(1253.418066, 409.907711)"><g><path d="M 89.78125 74.296875 C 104.140625 77.6875 118.265625 71.53125 125.5 58.5 C 131.078125 48.484375 135.828125 37.75 138.078125 25.875 C 139.53125 17.25 141.265625 8.890625 142.734375 0.265625 C 143.40625 -4.578125 142.984375 -9.84375 142.328125 -14.84375 C 141.359375 -20.625 138.828125 -25.734375 133.734375 -29.59375 C 130.078125 -32.234375 126.59375 -32.75 122.453125 -31.359375 C 112.078125 -27.90625 108.40625 -17.234375 114.1875 -7.875 C 114.75 -7.390625 114.796875 -6.859375 115.359375 -6.359375 C 120.0625 -0.890625 120.546875 5.453125 118.15625 12.296875 C 117.53125 14.71875 116.6875 17.453125 115.796875 19.625 C 111.0625 30.390625 102.734375 36.078125 91.109375 36.984375 C 81.359375 38 72.671875 32.046875 70.328125 22.671875 C 67.796875 10.640625 68.75 -0.859375 77.03125 -10.546875 C 81.90625 -16.234375 85.640625 -22.90625 89.359375 -29.5625 C 92.328125 -35.921875 96.375 -41.828125 101.046875 -46.703125 C 108.359375 -55.25 116.21875 -63.296875 122.953125 -72.328125 C 131.390625 -83.359375 142.15625 -91.90625 152.625 -100.703125 C 157.828125 -105.609375 164.109375 -106.640625 171.03125 -103.203125 C 172.421875 -102.5 174.09375 -101.5625 175.46875 -100.890625 C 177.9375 -99.75 180.359375 -99.671875 183 -99.875 C 188 -100.53125 190.59375 -104.71875 188.875 -109.640625 C 187.84375 -112.484375 186.09375 -114.46875 183.5625 -116.140625 C 177.734375 -119.65625 173.375 -124.375 168.96875 -129.59375 C 163.96875 -135.859375 157.734375 -140.6875 151.3125 -144.6875 C 142.078125 -150.625 137.703125 -148.9375 133.640625 -139.59375 C 127.53125 -126.109375 119.703125 -114.0625 109.921875 -103.203125 C 97.953125 -89.78125 88.5 -74.6875 76.8125 -61.015625 C 75.828125 -59.875 75.15625 -58.484375 74.421875 -57.640625 C 71.09375 -52.59375 67.203125 -48.046875 62.984375 -44.25 C 58.46875 -40.703125 54.53125 -36.6875 51.171875 -32.171875 C 43.75 -21.75 33.671875 -14.59375 22.171875 -8.65625 C 19.859375 -7.671875 17.828125 -6.453125 15.5625 -4.921875 C 11.3125 -1.6875 10.28125 2.375 12.578125 7.796875 C 13.578125 10.640625 15.625 12.875 17.90625 14.8125 C 23.640625 20.203125 29.625 25.328125 36.078125 29.875 C 41.125 33.1875 45.96875 37.328125 50.03125 41.796875 C 58.390625 49.921875 67.484375 57.703125 75.34375 66.390625 C 79.375 70.328125 84.375 73.125 89.78125 74.296875 Z M 89.78125 74.296875 "/></g></g></g><g fill="#1ac8db" fill-opacity="1"><g transform="translate(128.712644, 481.792381)"><g><path d="M 75.53125 -65.578125 C 83.453125 -71.3125 87.28125 -78.96875 87.015625 -88.5625 C 86.546875 -96.046875 85 -103.09375 81.828125 -109.71875 C 78.640625 -116.359375 74.90625 -122.515625 70.578125 -128.171875 C 57.328125 -144.953125 40.609375 -154.84375 18.90625 -156.09375 C 2.484375 -156.890625 -13.375 -154.734375 -28.53125 -148.28125 C -37.3125 -144.71875 -46.140625 -144.140625 -55.078125 -145.390625 C -59.546875 -146.03125 -63.921875 -147.703125 -66.828125 -151.140625 C -72.171875 -157.421875 -75.25 -165.125 -74.28125 -173.828125 C -73.375 -181.46875 -68.203125 -186.34375 -61.359375 -188.703125 C -54.484375 -191.59375 -48.1875 -190.546875 -42.8125 -184.796875 C -41.59375 -183.359375 -40.09375 -182.1875 -38.890625 -180.75 C -33.65625 -176.328125 -29.6875 -176.28125 -24.296875 -180.34375 C -22.328125 -181.515625 -20.328125 -183.203125 -18.328125 -184.90625 C -11.109375 -192.03125 -10.421875 -200.484375 -17.25 -207.9375 C -22.390625 -213.421875 -27.8125 -218.65625 -34.09375 -223.140625 C -38.625 -226.171875 -43.578125 -227.40625 -49.21875 -226.53125 C -53.25 -226.046875 -57.359375 -224.515625 -60.5 -221.859375 C -64.5 -218.46875 -68.21875 -215.3125 -71.6875 -211.875 C -76.828125 -207.515625 -81.734375 -202.875 -87.59375 -199.375 C -93.1875 -196.109375 -98.046875 -191.984375 -102.15625 -187 C -105.109375 -183.515625 -108.046875 -180.046875 -111 -176.546875 C -112.171875 -175.0625 -113.359375 -173.5625 -114.328125 -171.78125 C -116.8125 -167.203125 -116.640625 -162.9375 -113.53125 -158.6875 C -111.59375 -156.40625 -109.609375 -154.65625 -107.671875 -152.375 C -102.28125 -146.609375 -97.734375 -140.65625 -93.78125 -133.671875 C -88.125 -124.703125 -82.203125 -115.984375 -76.046875 -106.96875 C -74.140625 -104.171875 -71.71875 -101.3125 -69.28125 -98.453125 C -62.40625 -91.5 -52.5625 -91.484375 -45.59375 -98.890625 C -43.25 -101.375 -41.171875 -104.109375 -39.859375 -107.203125 C -35.71875 -115.625 -29.140625 -121.203125 -20.359375 -124.734375 C -18.15625 -125.609375 -15.671875 -126.75 -13.453125 -127.625 C -5.203125 -131.203125 3.015625 -130.796875 11 -127.75 C 28.515625 -121 39.421875 -108.140625 44.34375 -90.21875 C 46.78125 -80.96875 43.96875 -72.671875 36.015625 -66.421875 C 30.296875 -61.5625 23.265625 -60.03125 15.625 -60.921875 C 7.203125 -62.140625 1.234375 -66.890625 -1.015625 -75.3125 C -1.890625 -77.515625 -1.96875 -79.90625 -2.609375 -81.8125 C -4.390625 -89.15625 -10.3125 -91.484375 -16.75 -87.5 C -21.5625 -83.90625 -25.859375 -80.265625 -29.453125 -75.25 C -32.765625 -70.46875 -33.4375 -65.46875 -31.484375 -60.25 C -30.109375 -57.484375 -28.75 -54.71875 -27.09375 -52.203125 C -21.15625 -43.453125 -14.984375 -34.453125 -8.78125 -25.984375 C -6.15625 -22.296875 -2.96875 -19.109375 0.859375 -16.9375 C 5.875 -13.34375 11.15625 -12.90625 16.65625 -15.125 C 19.6875 -16.203125 22.4375 -17.5625 24.734375 -19.5 C 30.390625 -23.828125 35.8125 -28.421875 40.25 -33.65625 C 48.109375 -42.3125 55.96875 -50.4375 65.0625 -57.65625 C 68.484375 -60.578125 72.171875 -63.203125 75.53125 -65.578125 Z M 75.53125 -65.578125 "/></g></g></g><g fill="#1ac8db" fill-opacity="1"><g transform="translate(224.943086, 398.075238)"><g><path d="M 77.34375 -47.3125 C 81.1875 -49.65625 84.6875 -51.796875 88.21875 -53.953125 C 96.328125 -59.359375 102.234375 -66.9375 105.703125 -75.625 C 107.890625 -81.375 109.78125 -86.90625 108.765625 -92.890625 C 106 -107.4375 100.828125 -120.953125 88.28125 -129.96875 C 82.1875 -134.15625 77.71875 -139.34375 73.671875 -145.203125 C 68.46875 -153.015625 61.984375 -160 54.421875 -165.9375 C 46.671875 -172.15625 40.171875 -179.1875 34.453125 -187.09375 C 29.125 -194.375 23.796875 -201.65625 18.125 -208.734375 C 13.390625 -215.046875 8 -220.984375 3.390625 -227.8125 C -1.4375 -234.984375 -5.75 -236.296875 -14.0625 -233.390625 C -15.03125 -232.8125 -16.171875 -232.53125 -17.140625 -231.9375 C -25.78125 -228.84375 -33.78125 -223.953125 -41.453125 -219.265625 C -49.4375 -214.375 -57.21875 -209.1875 -65.5 -205.4375 C -69.71875 -203.734375 -73.359375 -201.078125 -76.40625 -197.453125 C -80.875 -192.53125 -81.734375 -186.75 -78.015625 -180.671875 C -75.859375 -177.15625 -73.078125 -174.03125 -70.59375 -170.703125 C -68.328125 -167.703125 -65.734375 -164.90625 -64.609375 -161.625 C -61.59375 -153.828125 -58.03125 -145.890625 -54.703125 -138.265625 C -53.0625 -134.890625 -52.078125 -131.09375 -51.078125 -127.296875 C -47.40625 -111.984375 -41.953125 -97.296875 -35.859375 -83.03125 C -31.40625 -72.15625 -26.5 -61.96875 -22.546875 -51.21875 C -18.1875 -37.640625 -8.65625 -28.515625 3.34375 -21.796875 C 11.484375 -17.140625 19.90625 -17.015625 28.546875 -20.109375 C 33.28125 -21.671875 38.140625 -23.765625 42.109375 -26.640625 C 50.484375 -33.078125 59.5 -37.703125 69.03125 -42.21875 C 71.59375 -43.796875 74.46875 -45.546875 77.34375 -47.3125 Z M 56.4375 -103.03125 C 58.984375 -96.703125 60.71875 -90.28125 59.953125 -83.671875 C 59.40625 -78.0625 57.65625 -73.03125 53.953125 -69.015625 C 47.921875 -63.125 41.125 -59.84375 32.625 -63 C 29.859375 -63.953125 26.875 -65.203125 24.234375 -66.65625 C 17.515625 -70.453125 11.046875 -75.265625 5.546875 -80.6875 C -4.4375 -91.28125 -12.390625 -103.5625 -17.90625 -116.859375 C -20.84375 -123.828125 -23.796875 -130.8125 -28.03125 -137.015625 C -35.59375 -148.640625 -38 -161.21875 -38.625 -174.453125 C -38.84375 -179.140625 -38.0625 -183.5625 -36.75 -187.890625 C -34.0625 -195.703125 -27.78125 -199.09375 -19.546875 -197.109375 C -17.28125 -196.28125 -15.03125 -195.46875 -12.578125 -194.328125 C -9.9375 -192.875 -7.296875 -191.421875 -5.078125 -189.265625 C 11.421875 -175.1875 25.5 -160.09375 37.625 -140.265625 C 44.328125 -128.5625 50.609375 -116.15625 56.4375 -103.03125 Z M 56.4375 -103.03125 "/></g></g></g><g fill="#1ac8db" fill-opacity="1"><g transform="translate(340.465133, 325.755804)"><g><path d="M -14.625 -66.46875 C -11.796875 -59.546875 -8.953125 -52.59375 -5.984375 -45.328125 C -4.078125 -41.640625 -2.515625 -37.828125 -0.609375 -34.140625 C 2.359375 -28.890625 6.21875 -24.40625 11.734375 -21.796875 C 20.53125 -18.09375 29.4375 -16.078125 38.78125 -17.0625 C 43.96875 -17.171875 48.625 -18.65625 52.859375 -21.203125 C 62 -26.5625 71.375 -30.390625 82.0625 -31.921875 C 88.40625 -33.28125 94.296875 -35.6875 99.609375 -39.5 C 103.90625 -42.875 108.046875 -46.578125 111.90625 -51.015625 C 117.984375 -57.921875 121.125 -66.09375 121.46875 -75.15625 C 121.71875 -89.40625 118.546875 -103.09375 111.09375 -115.421875 C 108.84375 -118.953125 106.09375 -122.703125 103.34375 -126.4375 C 97.296875 -135.28125 91.796875 -144.78125 87 -154.5625 C 81.90625 -165.015625 75.96875 -175.5625 68.40625 -184.203125 C 64.40625 -189.03125 61.453125 -194.296875 59.390625 -200.34375 C 55.484375 -210.875 50.53125 -221.015625 47.796875 -231.625 C 45.875 -239.34375 40.984375 -241.390625 33.90625 -238.890625 C 28.015625 -236.484375 22.734375 -233.515625 17.765625 -229.875 C 12.78125 -226.234375 12.453125 -222.03125 15.984375 -217.40625 C 16.125 -217.0625 16.75 -216.515625 16.890625 -216.15625 C 24.046875 -208.5625 28.703125 -199.125 33.015625 -189.578125 C 37.6875 -180.140625 42.34375 -170.703125 47.359375 -161.421875 C 53.21875 -150.046875 58.9375 -139.046875 62.71875 -126.8125 C 64.859375 -119.59375 68.03125 -112.8125 71.21875 -106 C 74.203125 -98.71875 76.46875 -91.15625 76.53125 -83.09375 C 76.734375 -74.671875 74.796875 -66.578125 69.546875 -59.59375 C 63.0625 -51.6875 53.96875 -49.1875 44.84375 -52.71875 C 41.40625 -54.15625 38.546875 -56.234375 35.53125 -58.65625 C 27.625 -65.125 23.234375 -73.859375 19.203125 -82.71875 C 16.15625 -89.171875 12.984375 -95.96875 8.890625 -102 C 5.234375 -106.984375 2.625 -112.375 1.609375 -118.84375 C 0.09375 -127.53125 -3.65625 -135.71875 -8.796875 -143.328125 C -14.140625 -152.484375 -18.109375 -162.1875 -19.671875 -172.890625 C -20.703125 -181.359375 -22.5625 -189.921875 -22.921875 -198.671875 C -22.921875 -200.703125 -23.296875 -202.578125 -24 -204.3125 C -25.5625 -208.125 -28.421875 -210.171875 -32.46875 -210.140625 C -34.140625 -210.265625 -36.359375 -209.78125 -38.09375 -209.078125 C -46 -206.640625 -53.421875 -201.984375 -60.609375 -197.84375 C -66.109375 -194.390625 -67.03125 -188.75 -62.734375 -183.203125 C -60.765625 -180.359375 -58.109375 -177.8125 -55.4375 -175.265625 C -50.609375 -170.359375 -47 -164.546875 -44.65625 -157.828125 C -41.6875 -150.53125 -38.84375 -143.609375 -36.015625 -136.65625 C -32.40625 -126.796875 -28.984375 -116.453125 -28.28125 -105.828125 C -27.6875 -100.390625 -26.390625 -95.25 -24.0625 -90.546875 C -20.796875 -82.5625 -17.546875 -74.59375 -14.28125 -66.609375 C -14.625 -66.46875 -14.625 -66.46875 -14.625 -66.46875 Z M -14.625 -66.46875 "/></g></g></g><g fill="#1ac8db" fill-opacity="1"><g transform="translate(468.760545, 272.174849)"><g><path d="M -28.59375 -207.21875 C -36.015625 -204.34375 -37.8125 -198.9375 -34.578125 -191.59375 C -33.25 -189.21875 -31.5625 -186.90625 -29.875 -184.625 C -25.71875 -178.28125 -22.265625 -171.765625 -20.125 -164.1875 C -16.640625 -154.234375 -13.171875 -144.265625 -10.0625 -134.234375 C -8.171875 -127.734375 -6.28125 -121.25 -5.859375 -114.421875 C -5.25 -106.875 -4.28125 -99.40625 -1.859375 -92.28125 C 2.5 -80.21875 5.09375 -67.34375 7.265625 -54.78125 C 9.078125 -43.671875 9.625 -33.015625 5.90625 -22.53125 C 5.15625 -20.8125 4.84375 -18.8125 4.546875 -16.828125 C 3.5 -8.125 8.40625 -3.5 16.984375 -4.71875 C 18.90625 -4.78125 21.09375 -5.28125 22.828125 -6.078125 C 28.765625 -8.625 34.875 -10.421875 41.09375 -11.875 C 43.265625 -12.375 45.375 -13.265625 47.40625 -14.484375 C 51.171875 -16.53125 51.859375 -20.15625 49.828125 -23.890625 C 48.421875 -26.65625 46.015625 -28.78125 43.296875 -30.46875 C 35.203125 -35.515625 30.328125 -43.21875 26.484375 -51.546875 C 23.0625 -59.609375 20.75 -67.921875 19.0625 -76.765625 C 17.046875 -87.046875 14.671875 -97.28125 10.765625 -107.515625 C 9 -111.71875 8.28125 -116.5625 7.984375 -121.109375 C 7.40625 -130.21875 6.46875 -139.21875 4.0625 -147.890625 C 3.640625 -149.71875 3.21875 -151.53125 3.15625 -153.453125 C 3.171875 -155 3.65625 -156.265625 4.5 -157.59375 C 4.96875 -158.859375 7.453125 -159.828125 8.890625 -158.625 C 10.21875 -157.796875 11.28125 -156.5 12.34375 -155.21875 C 14.671875 -151.890625 17.046875 -148.21875 19.09375 -144.453125 C 23.15625 -136.953125 27.5625 -129.5 32 -122.078125 C 33.859375 -119.046875 35.796875 -115.65625 37.296875 -112.546875 C 45.796875 -94.125 56.78125 -76.6875 67.6875 -59.609375 C 72.640625 -51.515625 78.515625 -44.4375 84.046875 -37.25 C 89.296875 -31.15625 96.046875 -26.96875 104.3125 -26.203125 C 110.578125 -25.734375 116.65625 -25.984375 122.5 -27.34375 C 132.8125 -29.34375 135.546875 -35.765625 130.421875 -44.578125 C 128.3125 -48.6875 125.734375 -53.109375 124.359375 -57.390625 C 121.5 -64.8125 118.984375 -72.3125 116.1875 -79.34375 C 114.515625 -83.1875 113.671875 -86.84375 113.09375 -90.921875 C 112.15625 -99.953125 110.03125 -109.078125 106.171875 -117.421875 C 103.09375 -124.015625 101.203125 -130.484375 99.59375 -137.421875 C 95.9375 -153.109375 94.5625 -168.953125 93.1875 -184.78125 C 92.4375 -194.609375 92.140625 -204.15625 93.65625 -214.140625 C 93.96875 -216.125 93.8125 -218.390625 93.6875 -220.671875 C 92.9375 -225.5 90.265625 -228.734375 85.546875 -229.1875 C 74.859375 -230.515625 64.1875 -228.421875 54.640625 -223.140625 C 50.59375 -220.65625 49.640625 -216.578125 52.171875 -212.171875 C 53.421875 -210.140625 55.109375 -207.859375 56.625 -206.28125 C 63.140625 -198.171875 67.8125 -189.65625 71.21875 -180.0625 C 73.875 -171.828125 76.9375 -163.703125 80.703125 -155.734375 C 83 -150.875 84.1875 -145.75 84.65625 -140.46875 C 85.765625 -130.734375 86.421875 -121.265625 87.8125 -111.984375 C 88.578125 -108.6875 89.515625 -104.671875 86.125 -102.734375 C 81.890625 -101 79.515625 -104.65625 77.28125 -107.609375 C 70.671875 -114.546875 66.015625 -123.0625 63.15625 -132.03125 C 61.5 -137.390625 59.515625 -142.71875 55.765625 -147.21875 C 46.84375 -157.453125 40.3125 -169.015625 36.15625 -181.921875 C 35.828125 -183.359375 35.03125 -185.09375 34.328125 -186.484375 C 30.875 -192.984375 26.796875 -198.9375 21.421875 -203.859375 C 13.546875 -211.265625 4.5 -213.765625 -5.59375 -212.578125 C -9.34375 -212.09375 -24.671875 -208.53125 -28.59375 -207.21875 Z M -28.59375 -207.21875 "/></g></g></g><g fill="#1ac8db" fill-opacity="1"><g transform="translate(598.648611, 240.627649)"><g><path d="M 84.671875 -3.046875 C 93.625 -4.078125 102.09375 -6.1875 110.484375 -9.796875 C 119.25 -13.0625 125.59375 -19.125 128.703125 -28.390625 C 132.734375 -39.9375 136.015625 -51.828125 138.15625 -63.984375 C 139.5625 -70.484375 139.453125 -77.234375 137.84375 -83.890625 C 135.6875 -93.109375 133.90625 -102.390625 131.734375 -111.609375 C 130.25 -116.390625 129.15625 -121.203125 127.328125 -125.9375 C 121.390625 -140.546875 115.46875 -155.15625 109.1875 -169.359375 C 104.640625 -180.296875 98.703125 -190.015625 90.171875 -198.796875 C 80.453125 -208.609375 68.84375 -213.40625 55 -212.796875 C 48.609375 -212.703125 42.609375 -212.65625 36.234375 -212.578125 C 31.703125 -212.625 27.234375 -212.3125 23.15625 -211.640625 C 16.8125 -210.8125 10.125 -209.953125 4.21875 -208.390625 C -2.40625 -206.421875 -4.40625 -202.90625 -3.5625 -196.203125 C -3.34375 -193.203125 -2.375 -190.265625 -1.40625 -187.34375 C 3.046875 -172.25 6.796875 -156.734375 6.828125 -140.59375 C 6.84375 -134.953125 8 -129.421875 9.15625 -123.859375 C 11.453125 -112.765625 13.390625 -101.625 12.34375 -89.90625 C 12.015625 -83.859375 12.46875 -77.515625 14.03125 -71.609375 C 16.140625 -63.140625 16.390625 -54.515625 14.375 -45.75 C 12.65625 -38.09375 10.609375 -30.046875 8.921875 -22.046875 C 7.984375 -19.359375 7.484375 -16.296875 7.71875 -12.9375 C 7.8125 -6.578125 11.0625 -2.671875 17.890625 -2.03125 C 21.296875 -1.53125 25.015625 -2.171875 28.734375 -2.4375 C 33.96875 -2.8125 39.578125 -3.21875 45.265625 -2.484375 C 54.75 -1.28125 64.125 -1.21875 73.84375 -2.28125 C 77.203125 -2.515625 80.9375 -2.78125 84.671875 -3.046875 Z M 100.59375 -79.703125 C 101.53125 -66.625 97.484375 -54.6875 91.15625 -43.71875 C 90.140625 -42.140625 89.125 -40.5625 87.734375 -38.96875 C 82.875 -33.359375 72.078125 -32.203125 66.46875 -37.0625 C 62.421875 -40.90625 58.78125 -44.78125 55.828125 -49.078125 C 49.453125 -59.515625 44.90625 -70.453125 42.90625 -82.71875 C 41.34375 -93.859375 39.421875 -104.984375 37.484375 -116.5 C 36.75 -121.328125 36.375 -126.5625 37.140625 -131.515625 C 38.40625 -140.234375 39.6875 -148.59375 40.5625 -157.296875 C 41.390625 -161.484375 42.234375 -165.296875 43.828125 -169.546875 C 45.078125 -173.015625 47.125 -175.796875 49.5625 -178.59375 C 54.84375 -183.484375 61.203125 -183.9375 67.125 -179.84375 C 68.296875 -179.171875 69.5 -178.140625 70.3125 -177.078125 C 82.453125 -165.171875 91.703125 -151.1875 92.96875 -133.625 C 93.65625 -123.90625 95.453125 -114.640625 98 -105.4375 C 99.546875 -99.546875 99.609375 -93.53125 100.0625 -87.1875 C 100.25 -84.5625 100.40625 -82.328125 100.59375 -79.703125 Z M 100.59375 -79.703125 "/></g></g></g><g fill="#1ac8db" fill-opacity="1"><g transform="translate(733.315117, 230.063035)"><g><path d="M 99.78125 7.078125 C 109.4375 8.625 117.5625 5.921875 124.140625 -1.0625 C 129.109375 -6.65625 133.015625 -12.734375 135.453125 -19.671875 C 137.90625 -26.625 139.609375 -33.609375 140.546875 -40.6875 C 143.0625 -61.90625 138.234375 -80.71875 123.78125 -96.953125 C 112.75 -109.140625 100.015625 -118.84375 84.734375 -124.984375 C 76 -128.703125 69.34375 -134.515625 63.921875 -141.734375 C 61.203125 -145.34375 59.3125 -149.625 59.671875 -154.109375 C 60.359375 -162.328125 63.609375 -169.9375 70.453125 -175.40625 C 76.5 -180.171875 83.609375 -179.96875 90.125 -176.796875 C 97.015625 -173.96875 100.734375 -168.78125 100.453125 -160.921875 C 100.3125 -159.046875 100.53125 -157.140625 100.375 -155.28125 C 100.9375 -148.453125 103.71875 -145.59375 110.40625 -144.671875 C 112.609375 -144.109375 115.234375 -143.890625 117.84375 -143.671875 C 128 -143.59375 134.453125 -149.09375 134.90625 -159.1875 C 135.15625 -166.703125 135.015625 -174.21875 133.75 -181.84375 C 132.703125 -187.1875 130.046875 -191.546875 125.4375 -194.9375 C 122.265625 -197.4375 118.28125 -199.28125 114.1875 -199.609375 C 108.953125 -200.046875 104.09375 -200.453125 99.203125 -200.46875 C 92.5 -201.03125 85.734375 -201.203125 79.125 -202.875 C 72.859375 -204.53125 66.5 -205.046875 60.078125 -204.453125 C 55.53125 -204.0625 50.984375 -203.6875 46.4375 -203.3125 C 44.53125 -203.09375 42.640625 -202.875 40.71875 -202.296875 C 35.703125 -200.828125 32.8125 -197.671875 32.015625 -192.46875 C 31.765625 -189.484375 31.921875 -186.828125 31.671875 -183.859375 C 31.40625 -175.984375 30.40625 -168.53125 28.28125 -160.828125 C 25.921875 -150.484375 23.9375 -140.125 21.9375 -129.40625 C 21.28125 -126.078125 20.96875 -122.328125 20.671875 -118.59375 C 20.59375 -108.828125 27.5625 -101.875 37.734375 -102.15625 C 41.125 -102.25 44.546875 -102.71875 47.671875 -103.96875 C 56.546875 -107 65.140625 -106.296875 73.859375 -102.578125 C 76.03125 -101.640625 78.59375 -100.671875 80.765625 -99.734375 C 89.140625 -96.421875 94.65625 -90.34375 98.140625 -82.53125 C 105.75 -65.359375 104.359375 -48.5625 95.15625 -32.390625 C 90.328125 -24.140625 82.5 -20.265625 72.453125 -21.46875 C 64.96875 -22.09375 58.90625 -25.96875 54.140625 -32 C 49.046875 -38.828125 48.1875 -46.40625 52.5625 -53.9375 C 53.484375 -56.125 55.140625 -57.875 56.03125 -59.65625 C 59.953125 -66.125 57.421875 -71.96875 50.0625 -73.703125 C 44.109375 -74.5625 38.5 -75.03125 32.40625 -74.03125 C 26.6875 -73 22.671875 -69.9375 20.375 -64.859375 C 19.375 -61.921875 18.390625 -59.015625 17.765625 -56.0625 C 15.78125 -45.6875 13.78125 -34.953125 12.171875 -24.5625 C 11.421875 -20.109375 11.4375 -15.59375 12.578125 -11.359375 C 13.578125 -5.28125 17.015625 -1.21875 22.46875 1.09375 C 25.359375 2.46875 28.28125 3.453125 31.265625 3.703125 C 38.34375 4.671875 45.421875 5.25 52.25 4.671875 C 63.9375 4.125 75.25 3.921875 86.78125 5.25 C 91.265625 5.625 95.71875 6.375 99.78125 7.078125 Z M 99.78125 7.078125 "/></g></g></g><g fill="#1ac8db" fill-opacity="1"><g transform="translate(860.585674, 239.000702)"><g><path d="M 130.75 31.5 C 132.578125 31.9375 134.125 31.9375 135.671875 31.90625 C 143.6875 32.296875 147.640625 27.09375 145.9375 19.75 C 145.359375 17.296875 144.625 15.5625 143.609375 13.40625 C 139.328125 3.890625 137.4375 -5.8125 138.359375 -16 C 139.40625 -31.53125 136.375 -46.15625 130.078125 -60 C 128.78125 -62.625 127.9375 -65.515625 127.46875 -68.328125 C 126.328125 -73.21875 128.09375 -77.421875 132.640625 -80.203125 C 135.265625 -81.484375 137.890625 -82.78125 140.125 -84.171875 C 143.5625 -85.640625 147.109375 -87.484375 150.625 -89.328125 C 155.875 -91.9375 159.296875 -96.5 161.703125 -101.6875 C 165.625 -110 167.375 -118.828125 166.84375 -127.828125 C 166.046875 -137.265625 165.96875 -146.546875 168.953125 -155.84375 C 169.40625 -157.65625 169.5625 -159.921875 169.640625 -161.84375 C 169.875 -167.578125 167 -171.71875 161.890625 -174.484375 C 160.171875 -175.296875 158.796875 -176.015625 156.984375 -176.453125 C 149.953125 -177.765625 142.78125 -179.875 135.671875 -180.8125 C 121.9375 -182.953125 108.375 -185.84375 94.875 -190.640625 C 89.96875 -192.59375 84.765625 -193.46875 79.65625 -194.703125 C 75.578125 -195.28125 71.125 -195.984375 67.203125 -195.765625 C 58.75 -195.890625 54.4375 -190.75 54.328125 -182.296875 C 54.703125 -180.65625 54.71875 -179.140625 55.09375 -177.5 C 57.296875 -164.25 55.046875 -151.671875 50.875 -139.203125 C 46.453125 -125.625 43.03125 -111.40625 40.34375 -97.03125 C 39.8125 -94.84375 39.640625 -92.5625 38.765625 -90.484375 C 33.796875 -74.71875 29.5625 -58.765625 26.4375 -42.5625 C 24.953125 -34.84375 22.109375 -27.8125 17.8125 -21.15625 C 16.453125 -18.78125 14.65625 -16.125 13.6875 -13.65625 C 10.203125 -7.15625 12.328125 -1.65625 18.828125 1.84375 C 20.203125 2.546875 22.03125 2.984375 23.484375 3.34375 C 31.390625 5.625 39.609375 8.390625 47.171875 12.140625 C 49.265625 13.03125 51.828125 13.640625 54.46875 13.90625 C 58.65625 14.125 61.890625 11.828125 62.9375 7.453125 C 63.640625 4.5625 63.625 1.46875 62.78125 -1.4375 C 61.65625 -6.34375 60.515625 -11.234375 59.390625 -16.125 C 58.25 -21.03125 57.390625 -25.484375 58.171875 -30.3125 C 59.8125 -40.3125 62.90625 -49.96875 67.109375 -59.375 C 70.140625 -65.578125 75.390625 -69.703125 82.34375 -71.5 C 88.890625 -73 93.8125 -71.046875 97.953125 -65.8125 C 100.515625 -62.109375 102.265625 -58.21875 103.140625 -53.78125 C 104.84375 -46.421875 105.453125 -39.328125 105.234375 -32.078125 C 105.125 -23.609375 103.828125 -15.078125 102.625 -6.875 C 101.21875 0.484375 101.296875 8.21875 103 15.578125 C 104.234375 21.640625 107.90625 25.625 113.640625 27.375 C 116.546875 28.078125 128.21875 30.890625 130.75 31.5 Z M 83.109375 -132.203125 C 87.46875 -142.328125 94.78125 -150.203125 103.25 -156.640625 C 110.3125 -161.890625 120.296875 -161.796875 127.609375 -156.9375 C 131.90625 -153.96875 134.40625 -149.90625 135.15625 -145.09375 C 137.09375 -132.3125 132.625 -121.828125 122.34375 -114.265625 C 119.453125 -111.875 116.296875 -109.9375 113.203125 -108.390625 C 106.078125 -104.3125 98.640625 -100.703125 91.59375 -97.03125 C 89.875 -96.28125 88.140625 -95.546875 86.078125 -94.890625 C 79.53125 -93.375 74.3125 -97.328125 74.4375 -104.21875 C 74.6875 -106.875 75.296875 -109.421875 75.828125 -111.609375 C 78.3125 -118.734375 80.34375 -125.546875 83.109375 -132.203125 Z M 83.109375 -132.203125 "/></g></g></g><g fill="#1ac8db" fill-opacity="1"><g transform="translate(993.345806, 270.349227)"><g><path d="M 65.34375 28.3125 C 71.9375 31 78.515625 33.6875 84.765625 36.25 C 91 38.796875 97.25 41.34375 103.78125 43.1875 C 114.734375 46.0625 120.75 43.25 126.59375 33.90625 C 127.359375 33.015625 127.78125 31.96875 128.21875 30.921875 C 133.875 19.078125 138.46875 6.796875 142.75 -5.640625 C 145.375 -13.0625 143.609375 -18.640625 136.875 -23.015625 C 131.765625 -26.3125 126 -29.078125 120.59375 -31.6875 C 119.203125 -32.265625 117.328125 -32.625 115.796875 -32.828125 C 109.546875 -33.359375 105.34375 -29 106.125 -23.03125 C 106.265625 -21.359375 107.09375 -19.390625 107.546875 -17.578125 C 108.4375 -14.796875 108.96875 -12.15625 109.03125 -9.28125 C 108.484375 -3.046875 106.359375 2.171875 100.578125 5.46875 C 94.765625 8.765625 89.140625 7.65625 84.015625 4.375 C 78.34375 0.4375 73.78125 -4.265625 71.265625 -10.96875 C 69.296875 -17.046875 68.828125 -22.875 69.859375 -29.328125 C 70.953125 -34.984375 72.515625 -40.796875 74.640625 -46 C 78.1875 -54.6875 83.53125 -61.796875 90.328125 -67.53125 C 100.046875 -76.515625 111.890625 -77.75 122.0625 -71.96875 C 124.703125 -70.484375 127.0625 -68.296875 129.40625 -66.125 C 131.21875 -64.578125 132.65625 -63.1875 134.4375 -61.640625 C 139.578125 -58.328125 143.34375 -59.625 145.96875 -65.03125 C 146.25 -65.71875 146.390625 -66.0625 146.671875 -66.765625 C 148.546875 -75.3125 148.875 -84.078125 147.046875 -92.515625 C 145.53125 -99.609375 140.53125 -103.28125 133.234375 -104.234375 C 126.484375 -104.5625 120.09375 -104.734375 113.109375 -103.53125 C 111.453125 -103.421875 109.296875 -103.078125 107.46875 -102.59375 C 101.421875 -102.65625 97.6875 -105.390625 96.890625 -111.390625 C 96.546875 -113.546875 96.578125 -115.5625 97.078125 -117.78125 C 98.515625 -123.28125 100.5 -128.125 104.765625 -131.640625 C 113.9375 -139.21875 124.1875 -143.53125 136.09375 -143.9375 C 145.828125 -144 153.046875 -139.859375 157.71875 -131.46875 C 159.421875 -128.734375 161 -125.671875 162.578125 -122.578125 C 163.546875 -120.984375 164.71875 -118.890625 166.03125 -117.125 C 170.984375 -111.46875 176.15625 -112.1875 178.625 -119.265625 C 181.171875 -125.515625 181.84375 -132.125 181.859375 -139.015625 C 181.265625 -144.5 179.0625 -149.03125 174.5625 -152.890625 C 171.515625 -155.359375 168.484375 -157.828125 164.53125 -159.03125 C 148.578125 -165.546875 132.484375 -173.734375 115.671875 -178.171875 C 111.234375 -179.1875 107.0625 -180.890625 102.90625 -182.578125 C 100.484375 -183.578125 98.046875 -184.5625 95.828125 -185.0625 C 86.875 -187.90625 82.421875 -184.890625 81.421875 -175.578125 C 81.203125 -174.03125 80.84375 -172.15625 80.96875 -170.484375 C 80.546875 -167.4375 80.09375 -164.390625 79.296875 -161.46875 C 74.796875 -143.46875 69.453125 -125.421875 63.046875 -107.796875 C 59.875 -99 56.53125 -89.828125 54.71875 -80.453125 C 53.703125 -76 51.859375 -71.484375 49.671875 -67.109375 C 43.671875 -55.40625 37.890625 -43.21875 32.09375 -31.015625 C 28.90625 -24.21875 25.390625 -17.5625 19.90625 -12.109375 C 19.140625 -11.203125 18.15625 -10.796875 17.734375 -9.75 C 13.09375 -4.34375 13.28125 0.15625 18.53125 5.140625 C 23.25 9.5 28.21875 13.15625 34.46875 15.703125 C 44.875 19.953125 55.28125 24.203125 65.34375 28.3125 Z M 65.34375 28.3125 "/></g></g></g><g fill="#1ac8db" fill-opacity="1"><g transform="translate(1106.749689, 313.930038)"><g><path d="M 136.46875 -160.3125 C 133.453125 -162.59375 129.5625 -164.09375 125.96875 -165.40625 C 118.984375 -168.34375 112.9375 -166.34375 106.875 -162.140625 C 104.140625 -159.84375 102.203125 -156.65625 101.078125 -153.390625 C 99.828125 -148.4375 103.390625 -144.953125 108.21875 -146.40625 C 110.28125 -146.90625 112.21875 -147.90625 114.796875 -148.53125 C 121.171875 -150.34375 126.40625 -146.703125 127.71875 -140.21875 C 127.9375 -137 127.859375 -133.96875 126.625 -131.21875 C 125.171875 -128.140625 123.421875 -125.25 121.03125 -122.78125 C 114.8125 -116.90625 109.875 -110.265625 105.265625 -103.4375 C 102.984375 -100.421875 100.71875 -97.421875 98.015625 -95.140625 C 87 -84.28125 76.296875 -73.265625 64.109375 -64.03125 C 58.34375 -59.625 53.234375 -54.859375 49.203125 -48.96875 C 45.375 -43.421875 40.375 -38.125 35.140625 -33.859375 C 27.3125 -26.78125 21.53125 -18.03125 16.578125 -9.203125 C 13.25 -3.75 13.484375 1.640625 16.40625 6.9375 C 19.078125 11.203125 22.421875 15 26.90625 17.734375 C 34.90625 22.625 42.90625 27.5 51.21875 32.578125 C 52.8125 33.546875 54.609375 34.203125 56.40625 34.859375 C 60.71875 35.734375 64.265625 33.515625 65.125 29.21875 C 65.84375 26.59375 65.546875 24.203125 65.25 21.828125 C 64 16.671875 62.890625 12.046875 61.640625 6.890625 C 59.390625 -2.375 59.96875 -11.25 63.265625 -20.21875 C 64.296875 -22.640625 65.15625 -24.765625 65.890625 -27.390625 C 71.515625 -42.390625 81.0625 -53.6875 96.0625 -60.328125 C 106 -64.359375 115.890625 -66.21875 126.484375 -64.125 C 138.546875 -61.609375 146.734375 -54.859375 148.890625 -42.578125 C 148.9375 -41.21875 149.5 -40 149.75 -38.96875 C 152.703125 -22.234375 150.859375 -6.25 140.078125 7.796875 C 133.265625 16.8125 125.8125 25.421875 118.875 33.921875 C 115.5 38.015625 110.734375 40.796875 105.71875 42.578125 C 103.65625 43.078125 101.390625 43.890625 99.328125 44.390625 C 95.84375 45.78125 93.328125 47.734375 92.84375 51.390625 C 92.171875 55.375 93.75 58.53125 97.28125 60.6875 C 99.1875 61.84375 101.421875 63.21875 103.859375 64.265625 C 109.578125 66.4375 114.875 69.234375 120.125 72.875 C 121.734375 73.859375 123.328125 74.828125 125.25 76 C 132.140625 79.765625 138.46875 78.796875 144.59375 73.78125 C 147.125 71.796875 149.53125 69.3125 151.28125 66.421875 C 154.328125 62.15625 156.109375 57.078125 157.5625 51.828125 C 159.734375 43.9375 162.546875 36.4375 166.015625 29.328125 C 171.359375 17.671875 176.53125 6.34375 180.421875 -5.765625 C 183.375 -14.9375 186.140625 -23.78125 189.421875 -32.75 C 191.65625 -39.296875 194.078125 -46.140625 195.484375 -52.765625 C 197.625 -64.1875 200.421875 -75.21875 204.34375 -85.984375 C 206.515625 -91.671875 207.640625 -97.125 207.8125 -103.171875 C 208.703125 -111.84375 205.421875 -118.671875 198.0625 -123.15625 C 193.578125 -125.890625 188.921875 -128.296875 184.234375 -130.71875 C 177.765625 -133.78125 172.015625 -137.296875 166.328125 -141.65625 C 160.65625 -146 154.703125 -149.1875 148.296875 -153.09375 C 144.078125 -154.78125 140.234375 -157.125 136.46875 -160.3125 Z M 175.328125 -88.765625 C 174.125 -82.46875 170.296875 -79.09375 164.25 -79.265625 C 161.75 -79.484375 159.25 -79.703125 156.625 -80.421875 C 150.71875 -82.265625 144.765625 -83.265625 138.53125 -83.140625 C 136.140625 -82.828125 133.515625 -83.5625 131.203125 -84.09375 C 126.96875 -85.796875 125.34375 -90.296875 128.015625 -93.953125 C 133.84375 -101.34375 140.640625 -108.1875 149.96875 -111.25 C 155.203125 -113.34375 161.0625 -112.828125 165.640625 -109.59375 C 173 -105.109375 176.984375 -96.53125 175.328125 -88.765625 Z M 175.328125 -88.765625 "/></g></g></g><g fill="#1ac8db" fill-opacity="1"><g transform="translate(1236.859459, 393.349147)"><g><path d="M 89.78125 74.296875 C 104.140625 77.6875 118.265625 71.53125 125.5 58.5 C 131.078125 48.484375 135.828125 37.75 138.078125 25.875 C 139.53125 17.25 141.265625 8.890625 142.734375 0.265625 C 143.40625 -4.578125 142.984375 -9.84375 142.328125 -14.84375 C 141.359375 -20.625 138.828125 -25.734375 133.734375 -29.59375 C 130.078125 -32.234375 126.59375 -32.75 122.453125 -31.359375 C 112.078125 -27.90625 108.40625 -17.234375 114.1875 -7.875 C 114.75 -7.390625 114.796875 -6.859375 115.359375 -6.359375 C 120.0625 -0.890625 120.546875 5.453125 118.15625 12.296875 C 117.53125 14.71875 116.6875 17.453125 115.796875 19.625 C 111.0625 30.390625 102.734375 36.078125 91.109375 36.984375 C 81.359375 38 72.671875 32.046875 70.328125 22.671875 C 67.796875 10.640625 68.75 -0.859375 77.03125 -10.546875 C 81.90625 -16.234375 85.640625 -22.90625 89.359375 -29.5625 C 92.328125 -35.921875 96.375 -41.828125 101.046875 -46.703125 C 108.359375 -55.25 116.21875 -63.296875 122.953125 -72.328125 C 131.390625 -83.359375 142.15625 -91.90625 152.625 -100.703125 C 157.828125 -105.609375 164.109375 -106.640625 171.03125 -103.203125 C 172.421875 -102.5 174.09375 -101.5625 175.46875 -100.890625 C 177.9375 -99.75 180.359375 -99.671875 183 -99.875 C 188 -100.53125 190.59375 -104.71875 188.875 -109.640625 C 187.84375 -112.484375 186.09375 -114.46875 183.5625 -116.140625 C 177.734375 -119.65625 173.375 -124.375 168.96875 -129.59375 C 163.96875 -135.859375 157.734375 -140.6875 151.3125 -144.6875 C 142.078125 -150.625 137.703125 -148.9375 133.640625 -139.59375 C 127.53125 -126.109375 119.703125 -114.0625 109.921875 -103.203125 C 97.953125 -89.78125 88.5 -74.6875 76.8125 -61.015625 C 75.828125 -59.875 75.15625 -58.484375 74.421875 -57.640625 C 71.09375 -52.59375 67.203125 -48.046875 62.984375 -44.25 C 58.46875 -40.703125 54.53125 -36.6875 51.171875 -32.171875 C 43.75 -21.75 33.671875 -14.59375 22.171875 -8.65625 C 19.859375 -7.671875 17.828125 -6.453125 15.5625 -4.921875 C 11.3125 -1.6875 10.28125 2.375 12.578125 7.796875 C 13.578125 10.640625 15.625 12.875 17.90625 14.8125 C 23.640625 20.203125 29.625 25.328125 36.078125 29.875 C 41.125 33.1875 45.96875 37.328125 50.03125 41.796875 C 58.390625 49.921875 67.484375 57.703125 75.34375 66.390625 C 79.375 70.328125 84.375 73.125 89.78125 74.296875 Z M 89.78125 74.296875 "/></g></g></g></svg>